<mxfile host="app.diagrams.net" agent="Mozilla/5.0 (Windows NT 10.0; Win64; x64) AppleWebKit/537.36 (KHTML, like Gecko) Chrome/130.0.0.0 YaBrowser/24.12.0.0 Safari/537.36" version="25.0.3">
  <diagram name="Страница — 1" id="wLzLnQC_n4ImIjXtYgtv">
    <mxGraphModel dx="2932" dy="3294" grid="1" gridSize="10" guides="1" tooltips="1" connect="1" arrows="1" fold="1" page="0" pageScale="1" pageWidth="827" pageHeight="1169" math="0" shadow="0">
      <root>
        <mxCell id="0" />
        <mxCell id="1" parent="0" />
        <mxCell id="WhICr9UihUXxUCOtgDrp-422" value="" style="rounded=1;whiteSpace=wrap;html=1;" vertex="1" parent="1">
          <mxGeometry x="-380" y="-1640" width="120" height="40" as="geometry" />
        </mxCell>
        <mxCell id="WhICr9UihUXxUCOtgDrp-423" value="" style="endArrow=classic;html=1;rounded=0;fontSize=12;startSize=8;endSize=8;curved=1;exitX=0.5;exitY=1;exitDx=0;exitDy=0;" edge="1" parent="1" source="WhICr9UihUXxUCOtgDrp-422">
          <mxGeometry width="50" height="50" relative="1" as="geometry">
            <mxPoint x="-320" y="-1500" as="sourcePoint" />
            <mxPoint x="-320" y="-1560" as="targetPoint" />
          </mxGeometry>
        </mxCell>
        <mxCell id="WhICr9UihUXxUCOtgDrp-424" value="" style="shape=hexagon;perimeter=hexagonPerimeter2;whiteSpace=wrap;html=1;fixedSize=1;" vertex="1" parent="1">
          <mxGeometry x="-435" y="-1560" width="230" height="40" as="geometry" />
        </mxCell>
        <mxCell id="WhICr9UihUXxUCOtgDrp-425" value="" style="endArrow=classic;html=1;rounded=0;fontSize=12;startSize=8;endSize=8;curved=1;exitX=0.5;exitY=1;exitDx=0;exitDy=0;" edge="1" parent="1" source="WhICr9UihUXxUCOtgDrp-424">
          <mxGeometry width="50" height="50" relative="1" as="geometry">
            <mxPoint x="-180" y="-1360" as="sourcePoint" />
            <mxPoint x="-320" y="-1480" as="targetPoint" />
          </mxGeometry>
        </mxCell>
        <mxCell id="WhICr9UihUXxUCOtgDrp-427" value="" style="shape=hexagon;perimeter=hexagonPerimeter2;whiteSpace=wrap;html=1;fixedSize=1;" vertex="1" parent="1">
          <mxGeometry x="-435" y="-1480" width="230" height="40" as="geometry" />
        </mxCell>
        <mxCell id="WhICr9UihUXxUCOtgDrp-428" value="" style="endArrow=classic;html=1;rounded=0;fontSize=12;startSize=8;endSize=8;curved=1;exitX=0.5;exitY=1;exitDx=0;exitDy=0;" edge="1" parent="1" source="WhICr9UihUXxUCOtgDrp-427">
          <mxGeometry width="50" height="50" relative="1" as="geometry">
            <mxPoint x="-180" y="-1280" as="sourcePoint" />
            <mxPoint x="-320" y="-1400" as="targetPoint" />
          </mxGeometry>
        </mxCell>
        <mxCell id="WhICr9UihUXxUCOtgDrp-429" value="" style="rounded=0;whiteSpace=wrap;html=1;" vertex="1" parent="1">
          <mxGeometry x="-430" y="-1400" width="225" height="40" as="geometry" />
        </mxCell>
        <mxCell id="WhICr9UihUXxUCOtgDrp-430" value="" style="rounded=0;whiteSpace=wrap;html=1;" vertex="1" parent="1">
          <mxGeometry x="-380" y="-1250" width="120" height="40" as="geometry" />
        </mxCell>
        <mxCell id="WhICr9UihUXxUCOtgDrp-431" value="" style="rounded=1;whiteSpace=wrap;html=1;" vertex="1" parent="1">
          <mxGeometry x="-380" y="-1170" width="120" height="40" as="geometry" />
        </mxCell>
        <mxCell id="WhICr9UihUXxUCOtgDrp-432" value="" style="endArrow=classic;html=1;rounded=0;fontSize=12;startSize=8;endSize=8;curved=1;exitX=0.5;exitY=1;exitDx=0;exitDy=0;entryX=0.5;entryY=0;entryDx=0;entryDy=0;" edge="1" parent="1" source="WhICr9UihUXxUCOtgDrp-430" target="WhICr9UihUXxUCOtgDrp-431">
          <mxGeometry width="50" height="50" relative="1" as="geometry">
            <mxPoint x="-160" y="-1160" as="sourcePoint" />
            <mxPoint x="-110" y="-1210" as="targetPoint" />
          </mxGeometry>
        </mxCell>
        <mxCell id="WhICr9UihUXxUCOtgDrp-433" value="" style="endArrow=classic;html=1;rounded=0;fontSize=12;startSize=8;endSize=8;curved=1;exitX=0.486;exitY=0.978;exitDx=0;exitDy=0;exitPerimeter=0;" edge="1" parent="1" source="WhICr9UihUXxUCOtgDrp-429">
          <mxGeometry width="50" height="50" relative="1" as="geometry">
            <mxPoint x="-322" y="-1360" as="sourcePoint" />
            <mxPoint x="-320" y="-1330" as="targetPoint" />
          </mxGeometry>
        </mxCell>
        <mxCell id="WhICr9UihUXxUCOtgDrp-434" value="" style="endArrow=none;html=1;rounded=0;fontSize=12;startSize=8;endSize=8;curved=1;" edge="1" parent="1">
          <mxGeometry width="50" height="50" relative="1" as="geometry">
            <mxPoint x="-460" y="-1330" as="sourcePoint" />
            <mxPoint x="-320" y="-1330" as="targetPoint" />
          </mxGeometry>
        </mxCell>
        <mxCell id="WhICr9UihUXxUCOtgDrp-435" value="" style="endArrow=none;html=1;rounded=0;fontSize=12;startSize=8;endSize=8;curved=1;" edge="1" parent="1">
          <mxGeometry width="50" height="50" relative="1" as="geometry">
            <mxPoint x="-460" y="-1330" as="sourcePoint" />
            <mxPoint x="-460" y="-1460" as="targetPoint" />
          </mxGeometry>
        </mxCell>
        <mxCell id="WhICr9UihUXxUCOtgDrp-436" value="" style="endArrow=classic;html=1;rounded=0;fontSize=12;startSize=8;endSize=8;curved=1;entryX=0;entryY=0.5;entryDx=0;entryDy=0;" edge="1" parent="1" target="WhICr9UihUXxUCOtgDrp-427">
          <mxGeometry width="50" height="50" relative="1" as="geometry">
            <mxPoint x="-460" y="-1460" as="sourcePoint" />
            <mxPoint x="-520" y="-1520" as="targetPoint" />
          </mxGeometry>
        </mxCell>
        <mxCell id="WhICr9UihUXxUCOtgDrp-437" value="" style="endArrow=none;html=1;rounded=0;fontSize=12;startSize=8;endSize=8;curved=1;exitX=1;exitY=0.5;exitDx=0;exitDy=0;" edge="1" parent="1" source="WhICr9UihUXxUCOtgDrp-427">
          <mxGeometry width="50" height="50" relative="1" as="geometry">
            <mxPoint x="-190" y="-1420" as="sourcePoint" />
            <mxPoint x="-180" y="-1460" as="targetPoint" />
          </mxGeometry>
        </mxCell>
        <mxCell id="WhICr9UihUXxUCOtgDrp-438" value="" style="endArrow=none;html=1;rounded=0;fontSize=12;startSize=8;endSize=8;curved=1;" edge="1" parent="1">
          <mxGeometry width="50" height="50" relative="1" as="geometry">
            <mxPoint x="-180" y="-1310" as="sourcePoint" />
            <mxPoint x="-180" y="-1460" as="targetPoint" />
          </mxGeometry>
        </mxCell>
        <mxCell id="WhICr9UihUXxUCOtgDrp-439" value="" style="endArrow=none;html=1;rounded=0;fontSize=12;startSize=8;endSize=8;curved=1;" edge="1" parent="1">
          <mxGeometry width="50" height="50" relative="1" as="geometry">
            <mxPoint x="-480" y="-1310" as="sourcePoint" />
            <mxPoint x="-180" y="-1310" as="targetPoint" />
          </mxGeometry>
        </mxCell>
        <mxCell id="WhICr9UihUXxUCOtgDrp-440" value="" style="endArrow=none;html=1;rounded=0;fontSize=12;startSize=8;endSize=8;curved=1;" edge="1" parent="1">
          <mxGeometry width="50" height="50" relative="1" as="geometry">
            <mxPoint x="-480" y="-1310" as="sourcePoint" />
            <mxPoint x="-480" y="-1540" as="targetPoint" />
          </mxGeometry>
        </mxCell>
        <mxCell id="WhICr9UihUXxUCOtgDrp-441" value="" style="endArrow=classic;html=1;rounded=0;fontSize=12;startSize=8;endSize=8;curved=1;entryX=0;entryY=0.5;entryDx=0;entryDy=0;" edge="1" parent="1" target="WhICr9UihUXxUCOtgDrp-424">
          <mxGeometry width="50" height="50" relative="1" as="geometry">
            <mxPoint x="-480" y="-1540" as="sourcePoint" />
            <mxPoint x="-460" y="-1620" as="targetPoint" />
          </mxGeometry>
        </mxCell>
        <mxCell id="WhICr9UihUXxUCOtgDrp-442" value="" style="endArrow=none;html=1;rounded=0;fontSize=12;startSize=8;endSize=8;curved=1;exitX=1;exitY=0.5;exitDx=0;exitDy=0;" edge="1" parent="1" source="WhICr9UihUXxUCOtgDrp-424">
          <mxGeometry width="50" height="50" relative="1" as="geometry">
            <mxPoint x="-120" y="-1500" as="sourcePoint" />
            <mxPoint x="-160" y="-1540" as="targetPoint" />
          </mxGeometry>
        </mxCell>
        <mxCell id="WhICr9UihUXxUCOtgDrp-444" value="" style="endArrow=none;html=1;rounded=0;fontSize=12;startSize=8;endSize=8;curved=1;" edge="1" parent="1">
          <mxGeometry width="50" height="50" relative="1" as="geometry">
            <mxPoint x="-160" y="-1280" as="sourcePoint" />
            <mxPoint x="-160" y="-1540" as="targetPoint" />
          </mxGeometry>
        </mxCell>
        <mxCell id="WhICr9UihUXxUCOtgDrp-445" value="" style="endArrow=none;html=1;rounded=0;fontSize=12;startSize=8;endSize=8;curved=1;" edge="1" parent="1">
          <mxGeometry width="50" height="50" relative="1" as="geometry">
            <mxPoint x="-320" y="-1280" as="sourcePoint" />
            <mxPoint x="-160" y="-1280" as="targetPoint" />
          </mxGeometry>
        </mxCell>
        <mxCell id="WhICr9UihUXxUCOtgDrp-446" value="" style="endArrow=classic;html=1;rounded=0;fontSize=12;startSize=8;endSize=8;curved=1;entryX=0.5;entryY=0;entryDx=0;entryDy=0;" edge="1" parent="1" target="WhICr9UihUXxUCOtgDrp-430">
          <mxGeometry width="50" height="50" relative="1" as="geometry">
            <mxPoint x="-320" y="-1280" as="sourcePoint" />
            <mxPoint x="-250" y="-1270" as="targetPoint" />
          </mxGeometry>
        </mxCell>
        <mxCell id="WhICr9UihUXxUCOtgDrp-447" value="Начало" style="text;html=1;align=center;verticalAlign=middle;whiteSpace=wrap;rounded=0;fontSize=16;" vertex="1" parent="1">
          <mxGeometry x="-380" y="-1640" width="120" height="40" as="geometry" />
        </mxCell>
        <mxCell id="WhICr9UihUXxUCOtgDrp-448" value="int i = 0; i &amp;lt; SIZE; i++" style="text;html=1;align=center;verticalAlign=middle;whiteSpace=wrap;rounded=0;fontSize=16;" vertex="1" parent="1">
          <mxGeometry x="-410" y="-1560" width="180" height="40" as="geometry" />
        </mxCell>
        <mxCell id="WhICr9UihUXxUCOtgDrp-449" value="int j = 0; j &amp;lt; SIZE; j++" style="text;html=1;align=center;verticalAlign=middle;whiteSpace=wrap;rounded=0;fontSize=16;" vertex="1" parent="1">
          <mxGeometry x="-410" y="-1480" width="180" height="40" as="geometry" />
        </mxCell>
        <mxCell id="WhICr9UihUXxUCOtgDrp-450" value="scanf(&quot;%d&quot;, &amp;amp;matrix[i][j])" style="text;html=1;align=center;verticalAlign=middle;whiteSpace=wrap;rounded=0;fontSize=16;" vertex="1" parent="1">
          <mxGeometry x="-430" y="-1400" width="220" height="40" as="geometry" />
        </mxCell>
        <mxCell id="WhICr9UihUXxUCOtgDrp-451" value="return **matrix" style="text;html=1;align=center;verticalAlign=middle;whiteSpace=wrap;rounded=0;fontSize=16;" vertex="1" parent="1">
          <mxGeometry x="-380" y="-1250" width="120" height="40" as="geometry" />
        </mxCell>
        <mxCell id="WhICr9UihUXxUCOtgDrp-452" value="Конец" style="text;html=1;align=center;verticalAlign=middle;whiteSpace=wrap;rounded=0;fontSize=16;" vertex="1" parent="1">
          <mxGeometry x="-380" y="-1170" width="120" height="40" as="geometry" />
        </mxCell>
        <mxCell id="WhICr9UihUXxUCOtgDrp-453" value="" style="rounded=1;whiteSpace=wrap;html=1;" vertex="1" parent="1">
          <mxGeometry x="165" y="-1640" width="120" height="40" as="geometry" />
        </mxCell>
        <mxCell id="WhICr9UihUXxUCOtgDrp-454" value="" style="endArrow=classic;html=1;rounded=0;fontSize=12;startSize=8;endSize=8;curved=1;exitX=0.5;exitY=1;exitDx=0;exitDy=0;" edge="1" parent="1" source="WhICr9UihUXxUCOtgDrp-453">
          <mxGeometry width="50" height="50" relative="1" as="geometry">
            <mxPoint x="225" y="-1500" as="sourcePoint" />
            <mxPoint x="225" y="-1560" as="targetPoint" />
          </mxGeometry>
        </mxCell>
        <mxCell id="WhICr9UihUXxUCOtgDrp-455" value="" style="shape=hexagon;perimeter=hexagonPerimeter2;whiteSpace=wrap;html=1;fixedSize=1;" vertex="1" parent="1">
          <mxGeometry x="110" y="-1560" width="230" height="40" as="geometry" />
        </mxCell>
        <mxCell id="WhICr9UihUXxUCOtgDrp-456" value="" style="endArrow=classic;html=1;rounded=0;fontSize=12;startSize=8;endSize=8;curved=1;exitX=0.5;exitY=1;exitDx=0;exitDy=0;" edge="1" parent="1" source="WhICr9UihUXxUCOtgDrp-455">
          <mxGeometry width="50" height="50" relative="1" as="geometry">
            <mxPoint x="365" y="-1360" as="sourcePoint" />
            <mxPoint x="225" y="-1480" as="targetPoint" />
          </mxGeometry>
        </mxCell>
        <mxCell id="WhICr9UihUXxUCOtgDrp-457" value="" style="shape=hexagon;perimeter=hexagonPerimeter2;whiteSpace=wrap;html=1;fixedSize=1;" vertex="1" parent="1">
          <mxGeometry x="110" y="-1480" width="230" height="40" as="geometry" />
        </mxCell>
        <mxCell id="WhICr9UihUXxUCOtgDrp-458" value="" style="endArrow=classic;html=1;rounded=0;fontSize=12;startSize=8;endSize=8;curved=1;exitX=0.5;exitY=1;exitDx=0;exitDy=0;" edge="1" parent="1" source="WhICr9UihUXxUCOtgDrp-457">
          <mxGeometry width="50" height="50" relative="1" as="geometry">
            <mxPoint x="365" y="-1280" as="sourcePoint" />
            <mxPoint x="225" y="-1400" as="targetPoint" />
          </mxGeometry>
        </mxCell>
        <mxCell id="WhICr9UihUXxUCOtgDrp-459" value="" style="rounded=0;whiteSpace=wrap;html=1;" vertex="1" parent="1">
          <mxGeometry x="115" y="-1400" width="225" height="40" as="geometry" />
        </mxCell>
        <mxCell id="WhICr9UihUXxUCOtgDrp-460" value="" style="rounded=0;whiteSpace=wrap;html=1;" vertex="1" parent="1">
          <mxGeometry x="165" y="-1250" width="120" height="40" as="geometry" />
        </mxCell>
        <mxCell id="WhICr9UihUXxUCOtgDrp-461" value="" style="rounded=1;whiteSpace=wrap;html=1;" vertex="1" parent="1">
          <mxGeometry x="165" y="-1170" width="120" height="40" as="geometry" />
        </mxCell>
        <mxCell id="WhICr9UihUXxUCOtgDrp-462" value="" style="endArrow=classic;html=1;rounded=0;fontSize=12;startSize=8;endSize=8;curved=1;exitX=0.5;exitY=1;exitDx=0;exitDy=0;entryX=0.5;entryY=0;entryDx=0;entryDy=0;" edge="1" parent="1" source="WhICr9UihUXxUCOtgDrp-460" target="WhICr9UihUXxUCOtgDrp-461">
          <mxGeometry width="50" height="50" relative="1" as="geometry">
            <mxPoint x="385" y="-1160" as="sourcePoint" />
            <mxPoint x="435" y="-1210" as="targetPoint" />
          </mxGeometry>
        </mxCell>
        <mxCell id="WhICr9UihUXxUCOtgDrp-463" value="" style="endArrow=classic;html=1;rounded=0;fontSize=12;startSize=8;endSize=8;curved=1;exitX=0.486;exitY=0.978;exitDx=0;exitDy=0;exitPerimeter=0;" edge="1" parent="1" source="WhICr9UihUXxUCOtgDrp-459">
          <mxGeometry width="50" height="50" relative="1" as="geometry">
            <mxPoint x="223" y="-1360" as="sourcePoint" />
            <mxPoint x="225" y="-1330" as="targetPoint" />
          </mxGeometry>
        </mxCell>
        <mxCell id="WhICr9UihUXxUCOtgDrp-464" value="" style="endArrow=none;html=1;rounded=0;fontSize=12;startSize=8;endSize=8;curved=1;" edge="1" parent="1">
          <mxGeometry width="50" height="50" relative="1" as="geometry">
            <mxPoint x="85" y="-1330" as="sourcePoint" />
            <mxPoint x="225" y="-1330" as="targetPoint" />
          </mxGeometry>
        </mxCell>
        <mxCell id="WhICr9UihUXxUCOtgDrp-465" value="" style="endArrow=none;html=1;rounded=0;fontSize=12;startSize=8;endSize=8;curved=1;" edge="1" parent="1">
          <mxGeometry width="50" height="50" relative="1" as="geometry">
            <mxPoint x="85" y="-1330" as="sourcePoint" />
            <mxPoint x="85" y="-1460" as="targetPoint" />
          </mxGeometry>
        </mxCell>
        <mxCell id="WhICr9UihUXxUCOtgDrp-466" value="" style="endArrow=classic;html=1;rounded=0;fontSize=12;startSize=8;endSize=8;curved=1;entryX=0;entryY=0.5;entryDx=0;entryDy=0;" edge="1" parent="1" target="WhICr9UihUXxUCOtgDrp-457">
          <mxGeometry width="50" height="50" relative="1" as="geometry">
            <mxPoint x="85" y="-1460" as="sourcePoint" />
            <mxPoint x="25" y="-1520" as="targetPoint" />
          </mxGeometry>
        </mxCell>
        <mxCell id="WhICr9UihUXxUCOtgDrp-467" value="" style="endArrow=none;html=1;rounded=0;fontSize=12;startSize=8;endSize=8;curved=1;exitX=1;exitY=0.5;exitDx=0;exitDy=0;" edge="1" parent="1" source="WhICr9UihUXxUCOtgDrp-457">
          <mxGeometry width="50" height="50" relative="1" as="geometry">
            <mxPoint x="355" y="-1420" as="sourcePoint" />
            <mxPoint x="365" y="-1460" as="targetPoint" />
          </mxGeometry>
        </mxCell>
        <mxCell id="WhICr9UihUXxUCOtgDrp-468" value="" style="endArrow=none;html=1;rounded=0;fontSize=12;startSize=8;endSize=8;curved=1;" edge="1" parent="1">
          <mxGeometry width="50" height="50" relative="1" as="geometry">
            <mxPoint x="365" y="-1310" as="sourcePoint" />
            <mxPoint x="365" y="-1460" as="targetPoint" />
          </mxGeometry>
        </mxCell>
        <mxCell id="WhICr9UihUXxUCOtgDrp-469" value="" style="endArrow=none;html=1;rounded=0;fontSize=12;startSize=8;endSize=8;curved=1;" edge="1" parent="1">
          <mxGeometry width="50" height="50" relative="1" as="geometry">
            <mxPoint x="65" y="-1310" as="sourcePoint" />
            <mxPoint x="365" y="-1310" as="targetPoint" />
          </mxGeometry>
        </mxCell>
        <mxCell id="WhICr9UihUXxUCOtgDrp-470" value="" style="endArrow=none;html=1;rounded=0;fontSize=12;startSize=8;endSize=8;curved=1;" edge="1" parent="1">
          <mxGeometry width="50" height="50" relative="1" as="geometry">
            <mxPoint x="65" y="-1310" as="sourcePoint" />
            <mxPoint x="65" y="-1540" as="targetPoint" />
          </mxGeometry>
        </mxCell>
        <mxCell id="WhICr9UihUXxUCOtgDrp-471" value="" style="endArrow=classic;html=1;rounded=0;fontSize=12;startSize=8;endSize=8;curved=1;entryX=0;entryY=0.5;entryDx=0;entryDy=0;" edge="1" parent="1" target="WhICr9UihUXxUCOtgDrp-455">
          <mxGeometry width="50" height="50" relative="1" as="geometry">
            <mxPoint x="65" y="-1540" as="sourcePoint" />
            <mxPoint x="85" y="-1620" as="targetPoint" />
          </mxGeometry>
        </mxCell>
        <mxCell id="WhICr9UihUXxUCOtgDrp-472" value="" style="endArrow=none;html=1;rounded=0;fontSize=12;startSize=8;endSize=8;curved=1;exitX=1;exitY=0.5;exitDx=0;exitDy=0;" edge="1" parent="1" source="WhICr9UihUXxUCOtgDrp-455">
          <mxGeometry width="50" height="50" relative="1" as="geometry">
            <mxPoint x="425" y="-1500" as="sourcePoint" />
            <mxPoint x="385" y="-1540" as="targetPoint" />
          </mxGeometry>
        </mxCell>
        <mxCell id="WhICr9UihUXxUCOtgDrp-473" value="" style="endArrow=none;html=1;rounded=0;fontSize=12;startSize=8;endSize=8;curved=1;" edge="1" parent="1">
          <mxGeometry width="50" height="50" relative="1" as="geometry">
            <mxPoint x="385" y="-1280" as="sourcePoint" />
            <mxPoint x="385" y="-1540" as="targetPoint" />
          </mxGeometry>
        </mxCell>
        <mxCell id="WhICr9UihUXxUCOtgDrp-474" value="" style="endArrow=none;html=1;rounded=0;fontSize=12;startSize=8;endSize=8;curved=1;" edge="1" parent="1">
          <mxGeometry width="50" height="50" relative="1" as="geometry">
            <mxPoint x="225" y="-1280" as="sourcePoint" />
            <mxPoint x="385" y="-1280" as="targetPoint" />
          </mxGeometry>
        </mxCell>
        <mxCell id="WhICr9UihUXxUCOtgDrp-475" value="" style="endArrow=classic;html=1;rounded=0;fontSize=12;startSize=8;endSize=8;curved=1;entryX=0.5;entryY=0;entryDx=0;entryDy=0;" edge="1" parent="1" target="WhICr9UihUXxUCOtgDrp-460">
          <mxGeometry width="50" height="50" relative="1" as="geometry">
            <mxPoint x="225" y="-1280" as="sourcePoint" />
            <mxPoint x="295" y="-1270" as="targetPoint" />
          </mxGeometry>
        </mxCell>
        <mxCell id="WhICr9UihUXxUCOtgDrp-476" value="Начало" style="text;html=1;align=center;verticalAlign=middle;whiteSpace=wrap;rounded=0;fontSize=16;" vertex="1" parent="1">
          <mxGeometry x="165" y="-1640" width="120" height="40" as="geometry" />
        </mxCell>
        <mxCell id="WhICr9UihUXxUCOtgDrp-477" value="int i = 0; i &amp;lt; SIZE; i++" style="text;html=1;align=center;verticalAlign=middle;whiteSpace=wrap;rounded=0;fontSize=16;" vertex="1" parent="1">
          <mxGeometry x="135" y="-1560" width="180" height="40" as="geometry" />
        </mxCell>
        <mxCell id="WhICr9UihUXxUCOtgDrp-478" value="int j = 0; j &amp;lt; SIZE; j++" style="text;html=1;align=center;verticalAlign=middle;whiteSpace=wrap;rounded=0;fontSize=16;" vertex="1" parent="1">
          <mxGeometry x="135" y="-1480" width="180" height="40" as="geometry" />
        </mxCell>
        <mxCell id="WhICr9UihUXxUCOtgDrp-479" value="matrix[i][j] = rand() % 2" style="text;html=1;align=center;verticalAlign=middle;whiteSpace=wrap;rounded=0;fontSize=16;" vertex="1" parent="1">
          <mxGeometry x="115" y="-1400" width="220" height="40" as="geometry" />
        </mxCell>
        <mxCell id="WhICr9UihUXxUCOtgDrp-480" value="return **matrix" style="text;html=1;align=center;verticalAlign=middle;whiteSpace=wrap;rounded=0;fontSize=16;" vertex="1" parent="1">
          <mxGeometry x="165" y="-1250" width="120" height="40" as="geometry" />
        </mxCell>
        <mxCell id="WhICr9UihUXxUCOtgDrp-481" value="Конец" style="text;html=1;align=center;verticalAlign=middle;whiteSpace=wrap;rounded=0;fontSize=16;" vertex="1" parent="1">
          <mxGeometry x="165" y="-1170" width="120" height="40" as="geometry" />
        </mxCell>
        <mxCell id="WhICr9UihUXxUCOtgDrp-482" value="" style="rounded=1;whiteSpace=wrap;html=1;" vertex="1" parent="1">
          <mxGeometry x="784" y="-1640" width="120" height="40" as="geometry" />
        </mxCell>
        <mxCell id="WhICr9UihUXxUCOtgDrp-483" value="" style="endArrow=classic;html=1;rounded=0;fontSize=12;startSize=8;endSize=8;curved=1;exitX=0.5;exitY=1;exitDx=0;exitDy=0;" edge="1" parent="1" source="WhICr9UihUXxUCOtgDrp-482">
          <mxGeometry width="50" height="50" relative="1" as="geometry">
            <mxPoint x="844" y="-1500" as="sourcePoint" />
            <mxPoint x="844" y="-1560" as="targetPoint" />
          </mxGeometry>
        </mxCell>
        <mxCell id="WhICr9UihUXxUCOtgDrp-484" value="Начало" style="text;html=1;align=center;verticalAlign=middle;whiteSpace=wrap;rounded=0;fontSize=16;" vertex="1" parent="1">
          <mxGeometry x="784" y="-1640" width="120" height="40" as="geometry" />
        </mxCell>
        <mxCell id="WhICr9UihUXxUCOtgDrp-485" value="" style="rhombus;whiteSpace=wrap;html=1;" vertex="1" parent="1">
          <mxGeometry x="659" y="-1560" width="370" height="240" as="geometry" />
        </mxCell>
        <mxCell id="WhICr9UihUXxUCOtgDrp-486" value="" style="rounded=0;whiteSpace=wrap;html=1;" vertex="1" parent="1">
          <mxGeometry x="784" y="-1290" width="120" height="40" as="geometry" />
        </mxCell>
        <mxCell id="WhICr9UihUXxUCOtgDrp-487" value="" style="endArrow=classic;html=1;rounded=0;fontSize=12;startSize=8;endSize=8;curved=1;entryX=0.5;entryY=0;entryDx=0;entryDy=0;" edge="1" parent="1" target="WhICr9UihUXxUCOtgDrp-486">
          <mxGeometry width="50" height="50" relative="1" as="geometry">
            <mxPoint x="844" y="-1320" as="sourcePoint" />
            <mxPoint x="914" y="-1310" as="targetPoint" />
          </mxGeometry>
        </mxCell>
        <mxCell id="WhICr9UihUXxUCOtgDrp-488" value="return 1" style="text;html=1;align=center;verticalAlign=middle;whiteSpace=wrap;rounded=0;fontSize=16;" vertex="1" parent="1">
          <mxGeometry x="784" y="-1290" width="120" height="40" as="geometry" />
        </mxCell>
        <mxCell id="WhICr9UihUXxUCOtgDrp-489" value="" style="rhombus;whiteSpace=wrap;html=1;" vertex="1" parent="1">
          <mxGeometry x="659" y="-1220" width="370" height="240" as="geometry" />
        </mxCell>
        <mxCell id="WhICr9UihUXxUCOtgDrp-490" value="" style="rounded=0;whiteSpace=wrap;html=1;" vertex="1" parent="1">
          <mxGeometry x="784" y="-950" width="120" height="40" as="geometry" />
        </mxCell>
        <mxCell id="WhICr9UihUXxUCOtgDrp-491" value="" style="endArrow=classic;html=1;rounded=0;fontSize=12;startSize=8;endSize=8;curved=1;entryX=0.5;entryY=0;entryDx=0;entryDy=0;" edge="1" parent="1" target="WhICr9UihUXxUCOtgDrp-490">
          <mxGeometry width="50" height="50" relative="1" as="geometry">
            <mxPoint x="844" y="-980" as="sourcePoint" />
            <mxPoint x="914" y="-970" as="targetPoint" />
          </mxGeometry>
        </mxCell>
        <mxCell id="WhICr9UihUXxUCOtgDrp-492" value="return 0" style="text;html=1;align=center;verticalAlign=middle;whiteSpace=wrap;rounded=0;fontSize=16;" vertex="1" parent="1">
          <mxGeometry x="784" y="-950" width="120" height="40" as="geometry" />
        </mxCell>
        <mxCell id="WhICr9UihUXxUCOtgDrp-493" value="" style="endArrow=none;html=1;rounded=0;fontSize=12;startSize=8;endSize=8;curved=1;" edge="1" parent="1">
          <mxGeometry width="50" height="50" relative="1" as="geometry">
            <mxPoint x="1030" y="-1440" as="sourcePoint" />
            <mxPoint x="1060" y="-1440" as="targetPoint" />
          </mxGeometry>
        </mxCell>
        <mxCell id="WhICr9UihUXxUCOtgDrp-494" value="" style="endArrow=none;html=1;rounded=0;fontSize=12;startSize=8;endSize=8;curved=1;" edge="1" parent="1">
          <mxGeometry width="50" height="50" relative="1" as="geometry">
            <mxPoint x="1060" y="-1240" as="sourcePoint" />
            <mxPoint x="1060" y="-1440" as="targetPoint" />
          </mxGeometry>
        </mxCell>
        <mxCell id="WhICr9UihUXxUCOtgDrp-495" value="" style="endArrow=none;html=1;rounded=0;fontSize=12;startSize=8;endSize=8;curved=1;" edge="1" parent="1">
          <mxGeometry width="50" height="50" relative="1" as="geometry">
            <mxPoint x="840" y="-1240" as="sourcePoint" />
            <mxPoint x="1060" y="-1240" as="targetPoint" />
          </mxGeometry>
        </mxCell>
        <mxCell id="WhICr9UihUXxUCOtgDrp-496" value="" style="endArrow=classic;html=1;rounded=0;fontSize=12;startSize=8;endSize=8;curved=1;entryX=0.5;entryY=0;entryDx=0;entryDy=0;" edge="1" parent="1" target="WhICr9UihUXxUCOtgDrp-489">
          <mxGeometry width="50" height="50" relative="1" as="geometry">
            <mxPoint x="844" y="-1240" as="sourcePoint" />
            <mxPoint x="690" y="-1210" as="targetPoint" />
          </mxGeometry>
        </mxCell>
        <mxCell id="WhICr9UihUXxUCOtgDrp-497" value="" style="endArrow=none;html=1;rounded=0;fontSize=12;startSize=8;endSize=8;curved=1;entryX=0;entryY=0.5;entryDx=0;entryDy=0;" edge="1" parent="1" target="WhICr9UihUXxUCOtgDrp-488">
          <mxGeometry width="50" height="50" relative="1" as="geometry">
            <mxPoint x="640" y="-1270" as="sourcePoint" />
            <mxPoint x="730" y="-1270" as="targetPoint" />
          </mxGeometry>
        </mxCell>
        <mxCell id="WhICr9UihUXxUCOtgDrp-498" value="" style="endArrow=none;html=1;rounded=0;fontSize=12;startSize=8;endSize=8;curved=1;" edge="1" parent="1">
          <mxGeometry width="50" height="50" relative="1" as="geometry">
            <mxPoint x="640" y="-850" as="sourcePoint" />
            <mxPoint x="640" y="-1270" as="targetPoint" />
          </mxGeometry>
        </mxCell>
        <mxCell id="WhICr9UihUXxUCOtgDrp-499" value="" style="rounded=1;whiteSpace=wrap;html=1;" vertex="1" parent="1">
          <mxGeometry x="784" y="-870" width="120" height="40" as="geometry" />
        </mxCell>
        <mxCell id="WhICr9UihUXxUCOtgDrp-501" value="Конец" style="text;html=1;align=center;verticalAlign=middle;whiteSpace=wrap;rounded=0;fontSize=16;" vertex="1" parent="1">
          <mxGeometry x="784" y="-870" width="120" height="40" as="geometry" />
        </mxCell>
        <mxCell id="WhICr9UihUXxUCOtgDrp-503" value="" style="endArrow=classic;html=1;rounded=0;fontSize=12;startSize=8;endSize=8;curved=1;entryX=0;entryY=0.5;entryDx=0;entryDy=0;" edge="1" parent="1" target="WhICr9UihUXxUCOtgDrp-501">
          <mxGeometry width="50" height="50" relative="1" as="geometry">
            <mxPoint x="640" y="-850" as="sourcePoint" />
            <mxPoint x="720" y="-850" as="targetPoint" />
          </mxGeometry>
        </mxCell>
        <mxCell id="WhICr9UihUXxUCOtgDrp-506" value="" style="endArrow=classic;html=1;rounded=0;fontSize=12;startSize=8;endSize=8;curved=1;exitX=0.5;exitY=1;exitDx=0;exitDy=0;entryX=0.5;entryY=0;entryDx=0;entryDy=0;" edge="1" parent="1" source="WhICr9UihUXxUCOtgDrp-492" target="WhICr9UihUXxUCOtgDrp-501">
          <mxGeometry width="50" height="50" relative="1" as="geometry">
            <mxPoint x="830" y="-760" as="sourcePoint" />
            <mxPoint x="880" y="-810" as="targetPoint" />
          </mxGeometry>
        </mxCell>
        <mxCell id="WhICr9UihUXxUCOtgDrp-507" value="" style="endArrow=none;html=1;rounded=0;fontSize=12;startSize=8;endSize=8;curved=1;" edge="1" parent="1">
          <mxGeometry width="50" height="50" relative="1" as="geometry">
            <mxPoint x="1030" y="-1100" as="sourcePoint" />
            <mxPoint x="1060" y="-1100" as="targetPoint" />
          </mxGeometry>
        </mxCell>
        <mxCell id="WhICr9UihUXxUCOtgDrp-508" value="" style="endArrow=none;html=1;rounded=0;fontSize=12;startSize=8;endSize=8;curved=1;" edge="1" parent="1">
          <mxGeometry width="50" height="50" relative="1" as="geometry">
            <mxPoint x="1060" y="-850" as="sourcePoint" />
            <mxPoint x="1060" y="-1100" as="targetPoint" />
          </mxGeometry>
        </mxCell>
        <mxCell id="WhICr9UihUXxUCOtgDrp-509" value="" style="endArrow=classic;html=1;rounded=0;fontSize=12;startSize=8;endSize=8;curved=1;entryX=1;entryY=0.5;entryDx=0;entryDy=0;" edge="1" parent="1" target="WhICr9UihUXxUCOtgDrp-501">
          <mxGeometry width="50" height="50" relative="1" as="geometry">
            <mxPoint x="1060" y="-850" as="sourcePoint" />
            <mxPoint x="1020" y="-850" as="targetPoint" />
          </mxGeometry>
        </mxCell>
        <mxCell id="WhICr9UihUXxUCOtgDrp-510" value="matrix[0][0] == 0 || matrix[0][1] == 0 || matrix[1][0] == 0 || matrix[1][1] == 0" style="text;html=1;align=center;verticalAlign=middle;whiteSpace=wrap;rounded=0;fontSize=16;" vertex="1" parent="1">
          <mxGeometry x="760" y="-1510" width="170" height="130" as="geometry" />
        </mxCell>
        <mxCell id="WhICr9UihUXxUCOtgDrp-511" value="matrix[4][4] == 0 || matrix[4][5] == 0 || matrix[5][4] == 0 || matrix[5][5] == 0" style="text;html=1;align=center;verticalAlign=middle;whiteSpace=wrap;rounded=0;fontSize=16;" vertex="1" parent="1">
          <mxGeometry x="760" y="-1165" width="170" height="130" as="geometry" />
        </mxCell>
        <mxCell id="WhICr9UihUXxUCOtgDrp-512" value="" style="rounded=1;whiteSpace=wrap;html=1;" vertex="1" parent="1">
          <mxGeometry x="1500" y="-1640" width="120" height="40" as="geometry" />
        </mxCell>
        <mxCell id="WhICr9UihUXxUCOtgDrp-513" value="" style="endArrow=classic;html=1;rounded=0;fontSize=12;startSize=8;endSize=8;curved=1;exitX=0.5;exitY=1;exitDx=0;exitDy=0;" edge="1" parent="1" source="WhICr9UihUXxUCOtgDrp-512">
          <mxGeometry width="50" height="50" relative="1" as="geometry">
            <mxPoint x="1560" y="-1500" as="sourcePoint" />
            <mxPoint x="1560" y="-1560" as="targetPoint" />
          </mxGeometry>
        </mxCell>
        <mxCell id="WhICr9UihUXxUCOtgDrp-514" value="Начало" style="text;html=1;align=center;verticalAlign=middle;whiteSpace=wrap;rounded=0;fontSize=16;" vertex="1" parent="1">
          <mxGeometry x="1500" y="-1640" width="120" height="40" as="geometry" />
        </mxCell>
        <mxCell id="WhICr9UihUXxUCOtgDrp-515" value="" style="endArrow=classic;html=1;rounded=0;fontSize=12;startSize=8;endSize=8;curved=1;exitX=0.5;exitY=1;exitDx=0;exitDy=0;" edge="1" parent="1">
          <mxGeometry width="50" height="50" relative="1" as="geometry">
            <mxPoint x="1560" y="-1600" as="sourcePoint" />
            <mxPoint x="1560" y="-1560" as="targetPoint" />
          </mxGeometry>
        </mxCell>
        <mxCell id="WhICr9UihUXxUCOtgDrp-516" value="" style="rounded=0;whiteSpace=wrap;html=1;" vertex="1" parent="1">
          <mxGeometry x="1450" y="-1560" width="225" height="40" as="geometry" />
        </mxCell>
        <mxCell id="WhICr9UihUXxUCOtgDrp-517" value="" style="endArrow=classic;html=1;rounded=0;fontSize=12;startSize=8;endSize=8;curved=1;exitX=0.486;exitY=0.978;exitDx=0;exitDy=0;exitPerimeter=0;" edge="1" parent="1" source="WhICr9UihUXxUCOtgDrp-516">
          <mxGeometry width="50" height="50" relative="1" as="geometry">
            <mxPoint x="1558" y="-1520" as="sourcePoint" />
            <mxPoint x="1560" y="-1490" as="targetPoint" />
          </mxGeometry>
        </mxCell>
        <mxCell id="WhICr9UihUXxUCOtgDrp-661" value="" style="edgeStyle=none;curved=1;rounded=0;orthogonalLoop=1;jettySize=auto;html=1;fontSize=12;startSize=8;endSize=8;" edge="1" parent="1" source="WhICr9UihUXxUCOtgDrp-518" target="WhICr9UihUXxUCOtgDrp-525">
          <mxGeometry relative="1" as="geometry" />
        </mxCell>
        <mxCell id="WhICr9UihUXxUCOtgDrp-518" value="ones_needed = 4" style="text;html=1;align=center;verticalAlign=middle;whiteSpace=wrap;rounded=0;fontSize=16;" vertex="1" parent="1">
          <mxGeometry x="1450" y="-1560" width="220" height="40" as="geometry" />
        </mxCell>
        <mxCell id="WhICr9UihUXxUCOtgDrp-519" value="" style="shape=hexagon;perimeter=hexagonPerimeter2;whiteSpace=wrap;html=1;fixedSize=1;" vertex="1" parent="1">
          <mxGeometry x="1445" y="-1490" width="230" height="40" as="geometry" />
        </mxCell>
        <mxCell id="WhICr9UihUXxUCOtgDrp-520" value="" style="endArrow=classic;html=1;rounded=0;fontSize=12;startSize=8;endSize=8;curved=1;exitX=0.5;exitY=1;exitDx=0;exitDy=0;entryX=0.5;entryY=0;entryDx=0;entryDy=0;" edge="1" parent="1" source="WhICr9UihUXxUCOtgDrp-519" target="WhICr9UihUXxUCOtgDrp-525">
          <mxGeometry width="50" height="50" relative="1" as="geometry">
            <mxPoint x="1700" y="-1290" as="sourcePoint" />
            <mxPoint x="1560" y="-1410" as="targetPoint" />
          </mxGeometry>
        </mxCell>
        <mxCell id="WhICr9UihUXxUCOtgDrp-521" value="int i = 0; i &lt; 2; i++" style="text;html=1;align=center;verticalAlign=middle;whiteSpace=wrap;rounded=0;fontSize=16;" vertex="1" parent="1">
          <mxGeometry x="1470" y="-1490" width="180" height="40" as="geometry" />
        </mxCell>
        <mxCell id="WhICr9UihUXxUCOtgDrp-523" value="" style="shape=hexagon;perimeter=hexagonPerimeter2;whiteSpace=wrap;html=1;fixedSize=1;" vertex="1" parent="1">
          <mxGeometry x="1445" y="-1419" width="230" height="40" as="geometry" />
        </mxCell>
        <mxCell id="WhICr9UihUXxUCOtgDrp-524" value="" style="endArrow=classic;html=1;rounded=0;fontSize=12;startSize=8;endSize=8;curved=1;exitX=0.5;exitY=1;exitDx=0;exitDy=0;" edge="1" parent="1" source="WhICr9UihUXxUCOtgDrp-523">
          <mxGeometry width="50" height="50" relative="1" as="geometry">
            <mxPoint x="1700" y="-1219" as="sourcePoint" />
            <mxPoint x="1560" y="-1339" as="targetPoint" />
          </mxGeometry>
        </mxCell>
        <mxCell id="WhICr9UihUXxUCOtgDrp-525" value="int j = 0; j &lt; 2; j++" style="text;html=1;align=center;verticalAlign=middle;whiteSpace=wrap;rounded=0;fontSize=16;" vertex="1" parent="1">
          <mxGeometry x="1470" y="-1419" width="180" height="40" as="geometry" />
        </mxCell>
        <mxCell id="WhICr9UihUXxUCOtgDrp-526" value="" style="rhombus;whiteSpace=wrap;html=1;" vertex="1" parent="1">
          <mxGeometry x="1437.5" y="-1340" width="245" height="100" as="geometry" />
        </mxCell>
        <mxCell id="WhICr9UihUXxUCOtgDrp-527" value="" style="endArrow=classic;html=1;rounded=0;fontSize=12;startSize=8;endSize=8;curved=1;exitX=0.486;exitY=0.978;exitDx=0;exitDy=0;exitPerimeter=0;" edge="1" parent="1">
          <mxGeometry width="50" height="50" relative="1" as="geometry">
            <mxPoint x="1559" y="-1240.5" as="sourcePoint" />
            <mxPoint x="1560" y="-1209.5" as="targetPoint" />
          </mxGeometry>
        </mxCell>
        <mxCell id="WhICr9UihUXxUCOtgDrp-528" value="" style="shape=hexagon;perimeter=hexagonPerimeter2;whiteSpace=wrap;html=1;fixedSize=1;" vertex="1" parent="1">
          <mxGeometry x="1445" y="-1209.5" width="230" height="40" as="geometry" />
        </mxCell>
        <mxCell id="WhICr9UihUXxUCOtgDrp-529" value="" style="endArrow=classic;html=1;rounded=0;fontSize=12;startSize=8;endSize=8;curved=1;exitX=0.5;exitY=1;exitDx=0;exitDy=0;entryX=0.5;entryY=0;entryDx=0;entryDy=0;" edge="1" parent="1" source="WhICr9UihUXxUCOtgDrp-528" target="WhICr9UihUXxUCOtgDrp-534">
          <mxGeometry width="50" height="50" relative="1" as="geometry">
            <mxPoint x="1700" y="-1009.5" as="sourcePoint" />
            <mxPoint x="1560" y="-1129.5" as="targetPoint" />
          </mxGeometry>
        </mxCell>
        <mxCell id="WhICr9UihUXxUCOtgDrp-530" value="int k = 0; k &lt; size; k++" style="text;html=1;align=center;verticalAlign=middle;whiteSpace=wrap;rounded=0;fontSize=16;" vertex="1" parent="1">
          <mxGeometry x="1470" y="-1209.5" width="180" height="40" as="geometry" />
        </mxCell>
        <mxCell id="WhICr9UihUXxUCOtgDrp-532" value="" style="shape=hexagon;perimeter=hexagonPerimeter2;whiteSpace=wrap;html=1;fixedSize=1;" vertex="1" parent="1">
          <mxGeometry x="1445" y="-1138.5" width="230" height="40" as="geometry" />
        </mxCell>
        <mxCell id="WhICr9UihUXxUCOtgDrp-533" value="" style="endArrow=classic;html=1;rounded=0;fontSize=12;startSize=8;endSize=8;curved=1;exitX=0.5;exitY=1;exitDx=0;exitDy=0;" edge="1" parent="1" source="WhICr9UihUXxUCOtgDrp-532">
          <mxGeometry width="50" height="50" relative="1" as="geometry">
            <mxPoint x="1700" y="-938.5" as="sourcePoint" />
            <mxPoint x="1560" y="-1058.5" as="targetPoint" />
          </mxGeometry>
        </mxCell>
        <mxCell id="WhICr9UihUXxUCOtgDrp-534" value="int l = 0; l &lt; size; l++" style="text;html=1;align=center;verticalAlign=middle;whiteSpace=wrap;rounded=0;fontSize=16;" vertex="1" parent="1">
          <mxGeometry x="1470" y="-1138.5" width="180" height="40" as="geometry" />
        </mxCell>
        <mxCell id="WhICr9UihUXxUCOtgDrp-535" value="" style="rhombus;whiteSpace=wrap;html=1;" vertex="1" parent="1">
          <mxGeometry x="1437.5" y="-1059.5" width="245" height="100" as="geometry" />
        </mxCell>
        <mxCell id="WhICr9UihUXxUCOtgDrp-545" value="" style="endArrow=classic;html=1;rounded=0;fontSize=12;startSize=8;endSize=8;curved=1;exitX=0.5;exitY=1;exitDx=0;exitDy=0;" edge="1" parent="1">
          <mxGeometry width="50" height="50" relative="1" as="geometry">
            <mxPoint x="1560" y="-959.5" as="sourcePoint" />
            <mxPoint x="1560" y="-919.5" as="targetPoint" />
          </mxGeometry>
        </mxCell>
        <mxCell id="WhICr9UihUXxUCOtgDrp-546" value="" style="endArrow=classic;html=1;rounded=0;fontSize=12;startSize=8;endSize=8;curved=1;exitX=0.5;exitY=1;exitDx=0;exitDy=0;" edge="1" parent="1">
          <mxGeometry width="50" height="50" relative="1" as="geometry">
            <mxPoint x="1560" y="-959.5" as="sourcePoint" />
            <mxPoint x="1560" y="-919.5" as="targetPoint" />
          </mxGeometry>
        </mxCell>
        <mxCell id="WhICr9UihUXxUCOtgDrp-547" value="" style="rounded=0;whiteSpace=wrap;html=1;" vertex="1" parent="1">
          <mxGeometry x="1450" y="-919.5" width="225" height="40" as="geometry" />
        </mxCell>
        <mxCell id="WhICr9UihUXxUCOtgDrp-548" value="" style="endArrow=classic;html=1;rounded=0;fontSize=12;startSize=8;endSize=8;curved=1;exitX=0.486;exitY=0.978;exitDx=0;exitDy=0;exitPerimeter=0;entryX=0.5;entryY=0;entryDx=0;entryDy=0;" edge="1" parent="1" source="WhICr9UihUXxUCOtgDrp-547" target="WhICr9UihUXxUCOtgDrp-553">
          <mxGeometry width="50" height="50" relative="1" as="geometry">
            <mxPoint x="1558" y="-879.5" as="sourcePoint" />
            <mxPoint x="1560" y="-849.5" as="targetPoint" />
          </mxGeometry>
        </mxCell>
        <mxCell id="WhICr9UihUXxUCOtgDrp-549" value="temp = matrix[i][j]" style="text;html=1;align=center;verticalAlign=middle;whiteSpace=wrap;rounded=0;fontSize=16;" vertex="1" parent="1">
          <mxGeometry x="1450" y="-919.5" width="220" height="40" as="geometry" />
        </mxCell>
        <mxCell id="WhICr9UihUXxUCOtgDrp-551" value="" style="rounded=0;whiteSpace=wrap;html=1;" vertex="1" parent="1">
          <mxGeometry x="1450" y="-849.5" width="225" height="40" as="geometry" />
        </mxCell>
        <mxCell id="WhICr9UihUXxUCOtgDrp-552" value="" style="endArrow=classic;html=1;rounded=0;fontSize=12;startSize=8;endSize=8;curved=1;exitX=0.486;exitY=0.978;exitDx=0;exitDy=0;exitPerimeter=0;" edge="1" parent="1" source="WhICr9UihUXxUCOtgDrp-551">
          <mxGeometry width="50" height="50" relative="1" as="geometry">
            <mxPoint x="1558" y="-809.5" as="sourcePoint" />
            <mxPoint x="1560" y="-779.5" as="targetPoint" />
          </mxGeometry>
        </mxCell>
        <mxCell id="WhICr9UihUXxUCOtgDrp-553" value="matrix[i][j] = matrix[k][l]" style="text;html=1;align=center;verticalAlign=middle;whiteSpace=wrap;rounded=0;fontSize=16;" vertex="1" parent="1">
          <mxGeometry x="1450" y="-849.5" width="220" height="40" as="geometry" />
        </mxCell>
        <mxCell id="WhICr9UihUXxUCOtgDrp-555" value="" style="rounded=0;whiteSpace=wrap;html=1;" vertex="1" parent="1">
          <mxGeometry x="1450" y="-780" width="225" height="40" as="geometry" />
        </mxCell>
        <mxCell id="WhICr9UihUXxUCOtgDrp-556" value="" style="endArrow=classic;html=1;rounded=0;fontSize=12;startSize=8;endSize=8;curved=1;exitX=0.486;exitY=0.978;exitDx=0;exitDy=0;exitPerimeter=0;" edge="1" parent="1" source="WhICr9UihUXxUCOtgDrp-555">
          <mxGeometry width="50" height="50" relative="1" as="geometry">
            <mxPoint x="1558" y="-740" as="sourcePoint" />
            <mxPoint x="1560" y="-710" as="targetPoint" />
          </mxGeometry>
        </mxCell>
        <mxCell id="WhICr9UihUXxUCOtgDrp-557" value="matrix[k][l] = temp" style="text;html=1;align=center;verticalAlign=middle;whiteSpace=wrap;rounded=0;fontSize=16;" vertex="1" parent="1">
          <mxGeometry x="1450" y="-780" width="220" height="40" as="geometry" />
        </mxCell>
        <mxCell id="WhICr9UihUXxUCOtgDrp-558" value="" style="rounded=0;whiteSpace=wrap;html=1;" vertex="1" parent="1">
          <mxGeometry x="1450" y="-710" width="225" height="40" as="geometry" />
        </mxCell>
        <mxCell id="WhICr9UihUXxUCOtgDrp-559" value="" style="endArrow=classic;html=1;rounded=0;fontSize=12;startSize=8;endSize=8;curved=1;exitX=0.486;exitY=0.978;exitDx=0;exitDy=0;exitPerimeter=0;" edge="1" parent="1" source="WhICr9UihUXxUCOtgDrp-558">
          <mxGeometry width="50" height="50" relative="1" as="geometry">
            <mxPoint x="1558" y="-670" as="sourcePoint" />
            <mxPoint x="1560" y="-640" as="targetPoint" />
          </mxGeometry>
        </mxCell>
        <mxCell id="WhICr9UihUXxUCOtgDrp-560" value="ones_needed--" style="text;html=1;align=center;verticalAlign=middle;whiteSpace=wrap;rounded=0;fontSize=16;" vertex="1" parent="1">
          <mxGeometry x="1450" y="-710" width="220" height="40" as="geometry" />
        </mxCell>
        <mxCell id="WhICr9UihUXxUCOtgDrp-561" value="" style="rhombus;whiteSpace=wrap;html=1;" vertex="1" parent="1">
          <mxGeometry x="1437.5" y="-640" width="245" height="100" as="geometry" />
        </mxCell>
        <mxCell id="WhICr9UihUXxUCOtgDrp-563" value="" style="rhombus;whiteSpace=wrap;html=1;" vertex="1" parent="1">
          <mxGeometry x="1437.5" y="-510" width="245" height="100" as="geometry" />
        </mxCell>
        <mxCell id="WhICr9UihUXxUCOtgDrp-565" value="" style="endArrow=none;html=1;rounded=0;fontSize=12;startSize=8;endSize=8;curved=1;exitX=1;exitY=0.5;exitDx=0;exitDy=0;" edge="1" parent="1">
          <mxGeometry width="50" height="50" relative="1" as="geometry">
            <mxPoint x="1670" y="-1470.91" as="sourcePoint" />
            <mxPoint x="1920" y="-1470.91" as="targetPoint" />
          </mxGeometry>
        </mxCell>
        <mxCell id="WhICr9UihUXxUCOtgDrp-566" value="" style="endArrow=none;html=1;rounded=0;fontSize=12;startSize=8;endSize=8;curved=1;" edge="1" parent="1">
          <mxGeometry width="50" height="50" relative="1" as="geometry">
            <mxPoint x="1920" y="-360" as="sourcePoint" />
            <mxPoint x="1920" y="-1470" as="targetPoint" />
          </mxGeometry>
        </mxCell>
        <mxCell id="WhICr9UihUXxUCOtgDrp-567" value="" style="endArrow=none;html=1;rounded=0;fontSize=12;startSize=8;endSize=8;curved=1;exitX=1;exitY=0.5;exitDx=0;exitDy=0;" edge="1" parent="1" source="WhICr9UihUXxUCOtgDrp-523">
          <mxGeometry width="50" height="50" relative="1" as="geometry">
            <mxPoint x="1760" y="-1210" as="sourcePoint" />
            <mxPoint x="1900" y="-1399" as="targetPoint" />
          </mxGeometry>
        </mxCell>
        <mxCell id="WhICr9UihUXxUCOtgDrp-568" value="" style="endArrow=none;html=1;rounded=0;fontSize=12;startSize=8;endSize=8;curved=1;" edge="1" parent="1">
          <mxGeometry width="50" height="50" relative="1" as="geometry">
            <mxPoint x="1900" y="-380" as="sourcePoint" />
            <mxPoint x="1900" y="-1400" as="targetPoint" />
          </mxGeometry>
        </mxCell>
        <mxCell id="WhICr9UihUXxUCOtgDrp-569" value="" style="endArrow=none;html=1;rounded=0;fontSize=12;startSize=8;endSize=8;curved=1;" edge="1" parent="1">
          <mxGeometry width="50" height="50" relative="1" as="geometry">
            <mxPoint x="1200" y="-380" as="sourcePoint" />
            <mxPoint x="1900" y="-380" as="targetPoint" />
          </mxGeometry>
        </mxCell>
        <mxCell id="WhICr9UihUXxUCOtgDrp-570" value="" style="endArrow=none;html=1;rounded=0;fontSize=12;startSize=8;endSize=8;curved=1;" edge="1" parent="1">
          <mxGeometry width="50" height="50" relative="1" as="geometry">
            <mxPoint x="1200" y="-380" as="sourcePoint" />
            <mxPoint x="1200" y="-1470" as="targetPoint" />
          </mxGeometry>
        </mxCell>
        <mxCell id="WhICr9UihUXxUCOtgDrp-571" value="" style="endArrow=classic;html=1;rounded=0;fontSize=12;startSize=8;endSize=8;curved=1;entryX=0;entryY=0.5;entryDx=0;entryDy=0;" edge="1" parent="1" target="WhICr9UihUXxUCOtgDrp-519">
          <mxGeometry width="50" height="50" relative="1" as="geometry">
            <mxPoint x="1200" y="-1470" as="sourcePoint" />
            <mxPoint x="1300" y="-1480" as="targetPoint" />
          </mxGeometry>
        </mxCell>
        <mxCell id="WhICr9UihUXxUCOtgDrp-572" value="" style="endArrow=none;html=1;rounded=0;fontSize=12;startSize=8;endSize=8;curved=1;exitX=1;exitY=0.5;exitDx=0;exitDy=0;" edge="1" parent="1" source="WhICr9UihUXxUCOtgDrp-526">
          <mxGeometry width="50" height="50" relative="1" as="geometry">
            <mxPoint x="1750" y="-1250" as="sourcePoint" />
            <mxPoint x="1880" y="-1290" as="targetPoint" />
          </mxGeometry>
        </mxCell>
        <mxCell id="WhICr9UihUXxUCOtgDrp-573" value="" style="endArrow=none;html=1;rounded=0;fontSize=12;startSize=8;endSize=8;curved=1;" edge="1" parent="1">
          <mxGeometry width="50" height="50" relative="1" as="geometry">
            <mxPoint x="1880" y="-400" as="sourcePoint" />
            <mxPoint x="1880" y="-1290" as="targetPoint" />
          </mxGeometry>
        </mxCell>
        <mxCell id="WhICr9UihUXxUCOtgDrp-574" value="" style="endArrow=none;html=1;rounded=0;fontSize=12;startSize=8;endSize=8;curved=1;" edge="1" parent="1">
          <mxGeometry width="50" height="50" relative="1" as="geometry">
            <mxPoint x="1220" y="-400" as="sourcePoint" />
            <mxPoint x="1880" y="-400" as="targetPoint" />
          </mxGeometry>
        </mxCell>
        <mxCell id="WhICr9UihUXxUCOtgDrp-575" value="" style="endArrow=none;html=1;rounded=0;fontSize=12;startSize=8;endSize=8;curved=1;" edge="1" parent="1">
          <mxGeometry width="50" height="50" relative="1" as="geometry">
            <mxPoint x="1220" y="-400" as="sourcePoint" />
            <mxPoint x="1220" y="-1400" as="targetPoint" />
          </mxGeometry>
        </mxCell>
        <mxCell id="WhICr9UihUXxUCOtgDrp-576" value="" style="endArrow=classic;html=1;rounded=0;fontSize=12;startSize=8;endSize=8;curved=1;entryX=0;entryY=0.5;entryDx=0;entryDy=0;" edge="1" parent="1" target="WhICr9UihUXxUCOtgDrp-523">
          <mxGeometry width="50" height="50" relative="1" as="geometry">
            <mxPoint x="1220" y="-1400" as="sourcePoint" />
            <mxPoint x="1340" y="-1400" as="targetPoint" />
          </mxGeometry>
        </mxCell>
        <mxCell id="WhICr9UihUXxUCOtgDrp-578" value="" style="endArrow=classic;html=1;rounded=0;fontSize=12;startSize=8;endSize=8;curved=1;exitX=1;exitY=0.5;exitDx=0;exitDy=0;" edge="1" parent="1" source="WhICr9UihUXxUCOtgDrp-528">
          <mxGeometry width="50" height="50" relative="1" as="geometry">
            <mxPoint x="1720" y="-1160" as="sourcePoint" />
            <mxPoint x="1880" y="-1189" as="targetPoint" />
          </mxGeometry>
        </mxCell>
        <mxCell id="WhICr9UihUXxUCOtgDrp-579" value="" style="endArrow=classic;html=1;rounded=0;fontSize=12;startSize=8;endSize=8;curved=1;exitX=1;exitY=0.5;exitDx=0;exitDy=0;" edge="1" parent="1" source="WhICr9UihUXxUCOtgDrp-563">
          <mxGeometry width="50" height="50" relative="1" as="geometry">
            <mxPoint x="1720" y="-420" as="sourcePoint" />
            <mxPoint x="1880" y="-460" as="targetPoint" />
          </mxGeometry>
        </mxCell>
        <mxCell id="WhICr9UihUXxUCOtgDrp-580" value="" style="endArrow=none;html=1;rounded=0;fontSize=12;startSize=8;endSize=8;curved=1;exitX=1;exitY=0.5;exitDx=0;exitDy=0;" edge="1" parent="1" source="WhICr9UihUXxUCOtgDrp-535">
          <mxGeometry width="50" height="50" relative="1" as="geometry">
            <mxPoint x="1720" y="-960" as="sourcePoint" />
            <mxPoint x="1760" y="-1010" as="targetPoint" />
          </mxGeometry>
        </mxCell>
        <mxCell id="WhICr9UihUXxUCOtgDrp-581" value="" style="endArrow=none;html=1;rounded=0;fontSize=12;startSize=8;endSize=8;curved=1;" edge="1" parent="1">
          <mxGeometry width="50" height="50" relative="1" as="geometry">
            <mxPoint x="1760" y="-520" as="sourcePoint" />
            <mxPoint x="1760" y="-1010" as="targetPoint" />
          </mxGeometry>
        </mxCell>
        <mxCell id="WhICr9UihUXxUCOtgDrp-582" value="" style="endArrow=none;html=1;rounded=0;fontSize=12;startSize=8;endSize=8;curved=1;entryX=0.5;entryY=1;entryDx=0;entryDy=0;" edge="1" parent="1" target="WhICr9UihUXxUCOtgDrp-561">
          <mxGeometry width="50" height="50" relative="1" as="geometry">
            <mxPoint x="1560" y="-520" as="sourcePoint" />
            <mxPoint x="1600" y="-540" as="targetPoint" />
          </mxGeometry>
        </mxCell>
        <mxCell id="WhICr9UihUXxUCOtgDrp-583" value="" style="endArrow=none;html=1;rounded=0;fontSize=12;startSize=8;endSize=8;curved=1;" edge="1" parent="1">
          <mxGeometry width="50" height="50" relative="1" as="geometry">
            <mxPoint x="1400" y="-520" as="sourcePoint" />
            <mxPoint x="1560" y="-520" as="targetPoint" />
          </mxGeometry>
        </mxCell>
        <mxCell id="WhICr9UihUXxUCOtgDrp-584" value="" style="endArrow=classic;html=1;rounded=0;fontSize=12;startSize=8;endSize=8;curved=1;" edge="1" parent="1">
          <mxGeometry width="50" height="50" relative="1" as="geometry">
            <mxPoint x="1760" y="-520" as="sourcePoint" />
            <mxPoint x="1560" y="-520" as="targetPoint" />
          </mxGeometry>
        </mxCell>
        <mxCell id="WhICr9UihUXxUCOtgDrp-585" value="" style="endArrow=none;html=1;rounded=0;fontSize=12;startSize=8;endSize=8;curved=1;" edge="1" parent="1">
          <mxGeometry width="50" height="50" relative="1" as="geometry">
            <mxPoint x="1400" y="-520" as="sourcePoint" />
            <mxPoint x="1400" y="-1120" as="targetPoint" />
          </mxGeometry>
        </mxCell>
        <mxCell id="WhICr9UihUXxUCOtgDrp-586" value="" style="endArrow=classic;html=1;rounded=0;fontSize=12;startSize=8;endSize=8;curved=1;entryX=0;entryY=0.5;entryDx=0;entryDy=0;" edge="1" parent="1" target="WhICr9UihUXxUCOtgDrp-532">
          <mxGeometry width="50" height="50" relative="1" as="geometry">
            <mxPoint x="1400" y="-1118" as="sourcePoint" />
            <mxPoint x="1380" y="-1180" as="targetPoint" />
          </mxGeometry>
        </mxCell>
        <mxCell id="WhICr9UihUXxUCOtgDrp-587" value="" style="endArrow=none;html=1;rounded=0;fontSize=12;startSize=8;endSize=8;curved=1;exitX=1;exitY=0.5;exitDx=0;exitDy=0;" edge="1" parent="1" source="WhICr9UihUXxUCOtgDrp-532">
          <mxGeometry width="50" height="50" relative="1" as="geometry">
            <mxPoint x="1720" y="-1060" as="sourcePoint" />
            <mxPoint x="1860" y="-1118" as="targetPoint" />
          </mxGeometry>
        </mxCell>
        <mxCell id="WhICr9UihUXxUCOtgDrp-588" value="" style="endArrow=none;html=1;rounded=0;fontSize=12;startSize=8;endSize=8;curved=1;" edge="1" parent="1">
          <mxGeometry width="50" height="50" relative="1" as="geometry">
            <mxPoint x="1860" y="-510" as="sourcePoint" />
            <mxPoint x="1860" y="-1120" as="targetPoint" />
          </mxGeometry>
        </mxCell>
        <mxCell id="WhICr9UihUXxUCOtgDrp-590" value="" style="endArrow=classic;html=1;rounded=0;fontSize=12;startSize=8;endSize=8;curved=1;entryX=0.5;entryY=0;entryDx=0;entryDy=0;" edge="1" parent="1" target="WhICr9UihUXxUCOtgDrp-563">
          <mxGeometry width="50" height="50" relative="1" as="geometry">
            <mxPoint x="1860" y="-510" as="sourcePoint" />
            <mxPoint x="1800" y="-520" as="targetPoint" />
          </mxGeometry>
        </mxCell>
        <mxCell id="WhICr9UihUXxUCOtgDrp-591" value="" style="endArrow=classic;html=1;rounded=0;fontSize=12;startSize=8;endSize=8;curved=1;exitX=1;exitY=0.5;exitDx=0;exitDy=0;" edge="1" parent="1" source="WhICr9UihUXxUCOtgDrp-561">
          <mxGeometry width="50" height="50" relative="1" as="geometry">
            <mxPoint x="1710" y="-560" as="sourcePoint" />
            <mxPoint x="1860" y="-590" as="targetPoint" />
          </mxGeometry>
        </mxCell>
        <mxCell id="WhICr9UihUXxUCOtgDrp-592" value="" style="endArrow=none;html=1;rounded=0;fontSize=12;startSize=8;endSize=8;curved=1;entryX=0.5;entryY=1;entryDx=0;entryDy=0;" edge="1" parent="1" target="WhICr9UihUXxUCOtgDrp-563">
          <mxGeometry width="50" height="50" relative="1" as="geometry">
            <mxPoint x="1320" y="-410" as="sourcePoint" />
            <mxPoint x="1380" y="-460" as="targetPoint" />
          </mxGeometry>
        </mxCell>
        <mxCell id="WhICr9UihUXxUCOtgDrp-593" value="" style="endArrow=none;html=1;rounded=0;fontSize=12;startSize=8;endSize=8;curved=1;" edge="1" parent="1">
          <mxGeometry width="50" height="50" relative="1" as="geometry">
            <mxPoint x="1320" y="-410" as="sourcePoint" />
            <mxPoint x="1320" y="-1190" as="targetPoint" />
          </mxGeometry>
        </mxCell>
        <mxCell id="WhICr9UihUXxUCOtgDrp-594" value="" style="endArrow=classic;html=1;rounded=0;fontSize=12;startSize=8;endSize=8;curved=1;entryX=0;entryY=0.5;entryDx=0;entryDy=0;" edge="1" parent="1" target="WhICr9UihUXxUCOtgDrp-528">
          <mxGeometry width="50" height="50" relative="1" as="geometry">
            <mxPoint x="1320" y="-1189" as="sourcePoint" />
            <mxPoint x="1430" y="-1210" as="targetPoint" />
          </mxGeometry>
        </mxCell>
        <mxCell id="WhICr9UihUXxUCOtgDrp-595" value="" style="endArrow=none;html=1;rounded=0;fontSize=12;startSize=8;endSize=8;curved=1;" edge="1" parent="1">
          <mxGeometry width="50" height="50" relative="1" as="geometry">
            <mxPoint x="1560" y="-360" as="sourcePoint" />
            <mxPoint x="1920" y="-360" as="targetPoint" />
          </mxGeometry>
        </mxCell>
        <mxCell id="WhICr9UihUXxUCOtgDrp-662" value="matrix[i][j] == 0" style="text;html=1;align=center;verticalAlign=middle;whiteSpace=wrap;rounded=0;fontSize=16;" vertex="1" parent="1">
          <mxGeometry x="1500" y="-1320" width="110" height="60" as="geometry" />
        </mxCell>
        <mxCell id="WhICr9UihUXxUCOtgDrp-663" value="matrix[k][l] == 1" style="text;html=1;align=center;verticalAlign=middle;whiteSpace=wrap;rounded=0;fontSize=16;" vertex="1" parent="1">
          <mxGeometry x="1500" y="-1040" width="120" height="60" as="geometry" />
        </mxCell>
        <mxCell id="WhICr9UihUXxUCOtgDrp-664" value="ones_needed == 0" style="text;html=1;align=center;verticalAlign=middle;whiteSpace=wrap;rounded=0;fontSize=16;" vertex="1" parent="1">
          <mxGeometry x="1510" y="-620" width="100" height="60" as="geometry" />
        </mxCell>
        <mxCell id="WhICr9UihUXxUCOtgDrp-665" value="ones_needed == 0" style="text;html=1;align=center;verticalAlign=middle;whiteSpace=wrap;rounded=0;fontSize=16;" vertex="1" parent="1">
          <mxGeometry x="1512.5" y="-490" width="100" height="60" as="geometry" />
        </mxCell>
        <mxCell id="WhICr9UihUXxUCOtgDrp-666" value="" style="endArrow=classic;html=1;rounded=0;fontSize=12;startSize=8;endSize=8;curved=1;exitX=0.5;exitY=1;exitDx=0;exitDy=0;" edge="1" parent="1">
          <mxGeometry width="50" height="50" relative="1" as="geometry">
            <mxPoint x="1561.73" y="-360" as="sourcePoint" />
            <mxPoint x="1561.73" y="-320" as="targetPoint" />
          </mxGeometry>
        </mxCell>
        <mxCell id="WhICr9UihUXxUCOtgDrp-667" value="" style="endArrow=classic;html=1;rounded=0;fontSize=12;startSize=8;endSize=8;curved=1;exitX=0.5;exitY=1;exitDx=0;exitDy=0;" edge="1" parent="1">
          <mxGeometry width="50" height="50" relative="1" as="geometry">
            <mxPoint x="1561.73" y="-360" as="sourcePoint" />
            <mxPoint x="1561.73" y="-320" as="targetPoint" />
          </mxGeometry>
        </mxCell>
        <mxCell id="WhICr9UihUXxUCOtgDrp-668" value="" style="rounded=0;whiteSpace=wrap;html=1;" vertex="1" parent="1">
          <mxGeometry x="1451.73" y="-320" width="225" height="40" as="geometry" />
        </mxCell>
        <mxCell id="WhICr9UihUXxUCOtgDrp-669" value="" style="endArrow=classic;html=1;rounded=0;fontSize=12;startSize=8;endSize=8;curved=1;exitX=0.486;exitY=0.978;exitDx=0;exitDy=0;exitPerimeter=0;" edge="1" parent="1" source="WhICr9UihUXxUCOtgDrp-668">
          <mxGeometry width="50" height="50" relative="1" as="geometry">
            <mxPoint x="1559.73" y="-280" as="sourcePoint" />
            <mxPoint x="1561.73" y="-250" as="targetPoint" />
          </mxGeometry>
        </mxCell>
        <mxCell id="WhICr9UihUXxUCOtgDrp-670" value="" style="edgeStyle=none;curved=1;rounded=0;orthogonalLoop=1;jettySize=auto;html=1;fontSize=12;startSize=8;endSize=8;" edge="1" parent="1" source="WhICr9UihUXxUCOtgDrp-671" target="WhICr9UihUXxUCOtgDrp-677">
          <mxGeometry relative="1" as="geometry" />
        </mxCell>
        <mxCell id="WhICr9UihUXxUCOtgDrp-671" value="ones_needed = 4" style="text;html=1;align=center;verticalAlign=middle;whiteSpace=wrap;rounded=0;fontSize=16;" vertex="1" parent="1">
          <mxGeometry x="1451.73" y="-320" width="220" height="40" as="geometry" />
        </mxCell>
        <mxCell id="WhICr9UihUXxUCOtgDrp-672" value="" style="shape=hexagon;perimeter=hexagonPerimeter2;whiteSpace=wrap;html=1;fixedSize=1;" vertex="1" parent="1">
          <mxGeometry x="1446.73" y="-250" width="230" height="40" as="geometry" />
        </mxCell>
        <mxCell id="WhICr9UihUXxUCOtgDrp-673" value="" style="endArrow=classic;html=1;rounded=0;fontSize=12;startSize=8;endSize=8;curved=1;exitX=0.5;exitY=1;exitDx=0;exitDy=0;entryX=0.5;entryY=0;entryDx=0;entryDy=0;" edge="1" parent="1" source="WhICr9UihUXxUCOtgDrp-672" target="WhICr9UihUXxUCOtgDrp-677">
          <mxGeometry width="50" height="50" relative="1" as="geometry">
            <mxPoint x="1701.73" y="-50" as="sourcePoint" />
            <mxPoint x="1561.73" y="-170" as="targetPoint" />
          </mxGeometry>
        </mxCell>
        <mxCell id="WhICr9UihUXxUCOtgDrp-674" value="int i = size - 2; i &lt; size; i++" style="text;html=1;align=center;verticalAlign=middle;whiteSpace=wrap;rounded=0;fontSize=16;" vertex="1" parent="1">
          <mxGeometry x="1471.73" y="-250" width="180" height="40" as="geometry" />
        </mxCell>
        <mxCell id="WhICr9UihUXxUCOtgDrp-675" value="" style="shape=hexagon;perimeter=hexagonPerimeter2;whiteSpace=wrap;html=1;fixedSize=1;" vertex="1" parent="1">
          <mxGeometry x="1446.73" y="-179" width="230" height="40" as="geometry" />
        </mxCell>
        <mxCell id="WhICr9UihUXxUCOtgDrp-676" value="" style="endArrow=classic;html=1;rounded=0;fontSize=12;startSize=8;endSize=8;curved=1;exitX=0.5;exitY=1;exitDx=0;exitDy=0;" edge="1" parent="1" source="WhICr9UihUXxUCOtgDrp-675">
          <mxGeometry width="50" height="50" relative="1" as="geometry">
            <mxPoint x="1701.73" y="21" as="sourcePoint" />
            <mxPoint x="1561.73" y="-99" as="targetPoint" />
          </mxGeometry>
        </mxCell>
        <mxCell id="WhICr9UihUXxUCOtgDrp-677" value="int j = size - 2; j &lt; size; j++" style="text;html=1;align=center;verticalAlign=middle;whiteSpace=wrap;rounded=0;fontSize=16;" vertex="1" parent="1">
          <mxGeometry x="1471.73" y="-179" width="180" height="40" as="geometry" />
        </mxCell>
        <mxCell id="WhICr9UihUXxUCOtgDrp-678" value="" style="rhombus;whiteSpace=wrap;html=1;" vertex="1" parent="1">
          <mxGeometry x="1439.23" y="-100" width="245" height="100" as="geometry" />
        </mxCell>
        <mxCell id="WhICr9UihUXxUCOtgDrp-679" value="" style="endArrow=classic;html=1;rounded=0;fontSize=12;startSize=8;endSize=8;curved=1;exitX=0.486;exitY=0.978;exitDx=0;exitDy=0;exitPerimeter=0;" edge="1" parent="1">
          <mxGeometry width="50" height="50" relative="1" as="geometry">
            <mxPoint x="1560.73" y="-0.5" as="sourcePoint" />
            <mxPoint x="1561.73" y="30.5" as="targetPoint" />
          </mxGeometry>
        </mxCell>
        <mxCell id="WhICr9UihUXxUCOtgDrp-680" value="" style="shape=hexagon;perimeter=hexagonPerimeter2;whiteSpace=wrap;html=1;fixedSize=1;" vertex="1" parent="1">
          <mxGeometry x="1446.73" y="30.5" width="230" height="40" as="geometry" />
        </mxCell>
        <mxCell id="WhICr9UihUXxUCOtgDrp-681" value="" style="endArrow=classic;html=1;rounded=0;fontSize=12;startSize=8;endSize=8;curved=1;exitX=0.5;exitY=1;exitDx=0;exitDy=0;entryX=0.5;entryY=0;entryDx=0;entryDy=0;" edge="1" parent="1" source="WhICr9UihUXxUCOtgDrp-680" target="WhICr9UihUXxUCOtgDrp-685">
          <mxGeometry width="50" height="50" relative="1" as="geometry">
            <mxPoint x="1701.73" y="230.5" as="sourcePoint" />
            <mxPoint x="1561.73" y="110.5" as="targetPoint" />
          </mxGeometry>
        </mxCell>
        <mxCell id="WhICr9UihUXxUCOtgDrp-682" value="int k = 2; k &lt; size; k++" style="text;html=1;align=center;verticalAlign=middle;whiteSpace=wrap;rounded=0;fontSize=16;" vertex="1" parent="1">
          <mxGeometry x="1471.73" y="30.5" width="180" height="40" as="geometry" />
        </mxCell>
        <mxCell id="WhICr9UihUXxUCOtgDrp-683" value="" style="shape=hexagon;perimeter=hexagonPerimeter2;whiteSpace=wrap;html=1;fixedSize=1;" vertex="1" parent="1">
          <mxGeometry x="1446.73" y="101.5" width="230" height="40" as="geometry" />
        </mxCell>
        <mxCell id="WhICr9UihUXxUCOtgDrp-684" value="" style="endArrow=classic;html=1;rounded=0;fontSize=12;startSize=8;endSize=8;curved=1;exitX=0.5;exitY=1;exitDx=0;exitDy=0;" edge="1" parent="1" source="WhICr9UihUXxUCOtgDrp-683">
          <mxGeometry width="50" height="50" relative="1" as="geometry">
            <mxPoint x="1701.73" y="301.5" as="sourcePoint" />
            <mxPoint x="1561.73" y="181.5" as="targetPoint" />
          </mxGeometry>
        </mxCell>
        <mxCell id="WhICr9UihUXxUCOtgDrp-685" value="int l = 2; l &lt; size; l++" style="text;html=1;align=center;verticalAlign=middle;whiteSpace=wrap;rounded=0;fontSize=16;" vertex="1" parent="1">
          <mxGeometry x="1471.73" y="101.5" width="180" height="40" as="geometry" />
        </mxCell>
        <mxCell id="WhICr9UihUXxUCOtgDrp-686" value="" style="rhombus;whiteSpace=wrap;html=1;" vertex="1" parent="1">
          <mxGeometry x="1439.23" y="180.5" width="245" height="100" as="geometry" />
        </mxCell>
        <mxCell id="WhICr9UihUXxUCOtgDrp-687" value="" style="endArrow=classic;html=1;rounded=0;fontSize=12;startSize=8;endSize=8;curved=1;exitX=0.5;exitY=1;exitDx=0;exitDy=0;" edge="1" parent="1">
          <mxGeometry width="50" height="50" relative="1" as="geometry">
            <mxPoint x="1561.73" y="280.5" as="sourcePoint" />
            <mxPoint x="1561.73" y="320.5" as="targetPoint" />
          </mxGeometry>
        </mxCell>
        <mxCell id="WhICr9UihUXxUCOtgDrp-688" value="" style="endArrow=classic;html=1;rounded=0;fontSize=12;startSize=8;endSize=8;curved=1;exitX=0.5;exitY=1;exitDx=0;exitDy=0;" edge="1" parent="1">
          <mxGeometry width="50" height="50" relative="1" as="geometry">
            <mxPoint x="1561.73" y="280.5" as="sourcePoint" />
            <mxPoint x="1561.73" y="320.5" as="targetPoint" />
          </mxGeometry>
        </mxCell>
        <mxCell id="WhICr9UihUXxUCOtgDrp-689" value="" style="rounded=0;whiteSpace=wrap;html=1;" vertex="1" parent="1">
          <mxGeometry x="1451.73" y="320.5" width="225" height="40" as="geometry" />
        </mxCell>
        <mxCell id="WhICr9UihUXxUCOtgDrp-690" value="" style="endArrow=classic;html=1;rounded=0;fontSize=12;startSize=8;endSize=8;curved=1;exitX=0.486;exitY=0.978;exitDx=0;exitDy=0;exitPerimeter=0;entryX=0.5;entryY=0;entryDx=0;entryDy=0;" edge="1" parent="1" source="WhICr9UihUXxUCOtgDrp-689" target="WhICr9UihUXxUCOtgDrp-694">
          <mxGeometry width="50" height="50" relative="1" as="geometry">
            <mxPoint x="1559.73" y="360.5" as="sourcePoint" />
            <mxPoint x="1561.73" y="390.5" as="targetPoint" />
          </mxGeometry>
        </mxCell>
        <mxCell id="WhICr9UihUXxUCOtgDrp-691" value="temp = matrix[i][j]" style="text;html=1;align=center;verticalAlign=middle;whiteSpace=wrap;rounded=0;fontSize=16;" vertex="1" parent="1">
          <mxGeometry x="1451.73" y="320.5" width="220" height="40" as="geometry" />
        </mxCell>
        <mxCell id="WhICr9UihUXxUCOtgDrp-692" value="" style="rounded=0;whiteSpace=wrap;html=1;" vertex="1" parent="1">
          <mxGeometry x="1451.73" y="390.5" width="225" height="40" as="geometry" />
        </mxCell>
        <mxCell id="WhICr9UihUXxUCOtgDrp-693" value="" style="endArrow=classic;html=1;rounded=0;fontSize=12;startSize=8;endSize=8;curved=1;exitX=0.486;exitY=0.978;exitDx=0;exitDy=0;exitPerimeter=0;" edge="1" parent="1" source="WhICr9UihUXxUCOtgDrp-692">
          <mxGeometry width="50" height="50" relative="1" as="geometry">
            <mxPoint x="1559.73" y="430.5" as="sourcePoint" />
            <mxPoint x="1561.73" y="460.5" as="targetPoint" />
          </mxGeometry>
        </mxCell>
        <mxCell id="WhICr9UihUXxUCOtgDrp-694" value="matrix[i][j] = matrix[k][l]" style="text;html=1;align=center;verticalAlign=middle;whiteSpace=wrap;rounded=0;fontSize=16;" vertex="1" parent="1">
          <mxGeometry x="1451.73" y="390.5" width="220" height="40" as="geometry" />
        </mxCell>
        <mxCell id="WhICr9UihUXxUCOtgDrp-695" value="" style="rounded=0;whiteSpace=wrap;html=1;" vertex="1" parent="1">
          <mxGeometry x="1451.73" y="460" width="225" height="40" as="geometry" />
        </mxCell>
        <mxCell id="WhICr9UihUXxUCOtgDrp-696" value="" style="endArrow=classic;html=1;rounded=0;fontSize=12;startSize=8;endSize=8;curved=1;exitX=0.486;exitY=0.978;exitDx=0;exitDy=0;exitPerimeter=0;" edge="1" parent="1" source="WhICr9UihUXxUCOtgDrp-695">
          <mxGeometry width="50" height="50" relative="1" as="geometry">
            <mxPoint x="1559.73" y="500" as="sourcePoint" />
            <mxPoint x="1561.73" y="530" as="targetPoint" />
          </mxGeometry>
        </mxCell>
        <mxCell id="WhICr9UihUXxUCOtgDrp-697" value="matrix[k][l] = temp" style="text;html=1;align=center;verticalAlign=middle;whiteSpace=wrap;rounded=0;fontSize=16;" vertex="1" parent="1">
          <mxGeometry x="1451.73" y="460" width="220" height="40" as="geometry" />
        </mxCell>
        <mxCell id="WhICr9UihUXxUCOtgDrp-698" value="" style="rounded=0;whiteSpace=wrap;html=1;" vertex="1" parent="1">
          <mxGeometry x="1451.73" y="530" width="225" height="40" as="geometry" />
        </mxCell>
        <mxCell id="WhICr9UihUXxUCOtgDrp-699" value="" style="endArrow=classic;html=1;rounded=0;fontSize=12;startSize=8;endSize=8;curved=1;exitX=0.486;exitY=0.978;exitDx=0;exitDy=0;exitPerimeter=0;" edge="1" parent="1" source="WhICr9UihUXxUCOtgDrp-698">
          <mxGeometry width="50" height="50" relative="1" as="geometry">
            <mxPoint x="1559.73" y="570" as="sourcePoint" />
            <mxPoint x="1561.73" y="600" as="targetPoint" />
          </mxGeometry>
        </mxCell>
        <mxCell id="WhICr9UihUXxUCOtgDrp-700" value="ones_needed--" style="text;html=1;align=center;verticalAlign=middle;whiteSpace=wrap;rounded=0;fontSize=16;" vertex="1" parent="1">
          <mxGeometry x="1451.73" y="530" width="220" height="40" as="geometry" />
        </mxCell>
        <mxCell id="WhICr9UihUXxUCOtgDrp-701" value="" style="rhombus;whiteSpace=wrap;html=1;" vertex="1" parent="1">
          <mxGeometry x="1439.23" y="600" width="245" height="100" as="geometry" />
        </mxCell>
        <mxCell id="WhICr9UihUXxUCOtgDrp-702" value="" style="rhombus;whiteSpace=wrap;html=1;" vertex="1" parent="1">
          <mxGeometry x="1439.23" y="730" width="245" height="100" as="geometry" />
        </mxCell>
        <mxCell id="WhICr9UihUXxUCOtgDrp-703" value="" style="endArrow=none;html=1;rounded=0;fontSize=12;startSize=8;endSize=8;curved=1;exitX=1;exitY=0.5;exitDx=0;exitDy=0;" edge="1" parent="1">
          <mxGeometry width="50" height="50" relative="1" as="geometry">
            <mxPoint x="1671.73" y="-230.91000000000008" as="sourcePoint" />
            <mxPoint x="1921.73" y="-230.91000000000008" as="targetPoint" />
          </mxGeometry>
        </mxCell>
        <mxCell id="WhICr9UihUXxUCOtgDrp-704" value="" style="endArrow=none;html=1;rounded=0;fontSize=12;startSize=8;endSize=8;curved=1;" edge="1" parent="1">
          <mxGeometry width="50" height="50" relative="1" as="geometry">
            <mxPoint x="1921.73" y="880" as="sourcePoint" />
            <mxPoint x="1921.73" y="-230" as="targetPoint" />
          </mxGeometry>
        </mxCell>
        <mxCell id="WhICr9UihUXxUCOtgDrp-705" value="" style="endArrow=none;html=1;rounded=0;fontSize=12;startSize=8;endSize=8;curved=1;exitX=1;exitY=0.5;exitDx=0;exitDy=0;" edge="1" parent="1" source="WhICr9UihUXxUCOtgDrp-675">
          <mxGeometry width="50" height="50" relative="1" as="geometry">
            <mxPoint x="1761.73" y="30" as="sourcePoint" />
            <mxPoint x="1901.73" y="-159" as="targetPoint" />
          </mxGeometry>
        </mxCell>
        <mxCell id="WhICr9UihUXxUCOtgDrp-706" value="" style="endArrow=none;html=1;rounded=0;fontSize=12;startSize=8;endSize=8;curved=1;" edge="1" parent="1">
          <mxGeometry width="50" height="50" relative="1" as="geometry">
            <mxPoint x="1901.73" y="860" as="sourcePoint" />
            <mxPoint x="1901.73" y="-160" as="targetPoint" />
          </mxGeometry>
        </mxCell>
        <mxCell id="WhICr9UihUXxUCOtgDrp-707" value="" style="endArrow=none;html=1;rounded=0;fontSize=12;startSize=8;endSize=8;curved=1;" edge="1" parent="1">
          <mxGeometry width="50" height="50" relative="1" as="geometry">
            <mxPoint x="1201.73" y="860" as="sourcePoint" />
            <mxPoint x="1901.73" y="860" as="targetPoint" />
          </mxGeometry>
        </mxCell>
        <mxCell id="WhICr9UihUXxUCOtgDrp-708" value="" style="endArrow=none;html=1;rounded=0;fontSize=12;startSize=8;endSize=8;curved=1;" edge="1" parent="1">
          <mxGeometry width="50" height="50" relative="1" as="geometry">
            <mxPoint x="1201.73" y="860" as="sourcePoint" />
            <mxPoint x="1201.73" y="-230" as="targetPoint" />
          </mxGeometry>
        </mxCell>
        <mxCell id="WhICr9UihUXxUCOtgDrp-709" value="" style="endArrow=classic;html=1;rounded=0;fontSize=12;startSize=8;endSize=8;curved=1;entryX=0;entryY=0.5;entryDx=0;entryDy=0;" edge="1" parent="1" target="WhICr9UihUXxUCOtgDrp-672">
          <mxGeometry width="50" height="50" relative="1" as="geometry">
            <mxPoint x="1201.73" y="-230" as="sourcePoint" />
            <mxPoint x="1301.73" y="-240" as="targetPoint" />
          </mxGeometry>
        </mxCell>
        <mxCell id="WhICr9UihUXxUCOtgDrp-710" value="" style="endArrow=none;html=1;rounded=0;fontSize=12;startSize=8;endSize=8;curved=1;exitX=1;exitY=0.5;exitDx=0;exitDy=0;" edge="1" parent="1" source="WhICr9UihUXxUCOtgDrp-678">
          <mxGeometry width="50" height="50" relative="1" as="geometry">
            <mxPoint x="1751.73" y="-10" as="sourcePoint" />
            <mxPoint x="1881.73" y="-50" as="targetPoint" />
          </mxGeometry>
        </mxCell>
        <mxCell id="WhICr9UihUXxUCOtgDrp-711" value="" style="endArrow=none;html=1;rounded=0;fontSize=12;startSize=8;endSize=8;curved=1;" edge="1" parent="1">
          <mxGeometry width="50" height="50" relative="1" as="geometry">
            <mxPoint x="1881.73" y="840" as="sourcePoint" />
            <mxPoint x="1881.73" y="-50" as="targetPoint" />
          </mxGeometry>
        </mxCell>
        <mxCell id="WhICr9UihUXxUCOtgDrp-712" value="" style="endArrow=none;html=1;rounded=0;fontSize=12;startSize=8;endSize=8;curved=1;" edge="1" parent="1">
          <mxGeometry width="50" height="50" relative="1" as="geometry">
            <mxPoint x="1221.73" y="840" as="sourcePoint" />
            <mxPoint x="1881.73" y="840" as="targetPoint" />
          </mxGeometry>
        </mxCell>
        <mxCell id="WhICr9UihUXxUCOtgDrp-713" value="" style="endArrow=none;html=1;rounded=0;fontSize=12;startSize=8;endSize=8;curved=1;" edge="1" parent="1">
          <mxGeometry width="50" height="50" relative="1" as="geometry">
            <mxPoint x="1221.73" y="840" as="sourcePoint" />
            <mxPoint x="1221.73" y="-160" as="targetPoint" />
          </mxGeometry>
        </mxCell>
        <mxCell id="WhICr9UihUXxUCOtgDrp-714" value="" style="endArrow=classic;html=1;rounded=0;fontSize=12;startSize=8;endSize=8;curved=1;entryX=0;entryY=0.5;entryDx=0;entryDy=0;" edge="1" parent="1" target="WhICr9UihUXxUCOtgDrp-675">
          <mxGeometry width="50" height="50" relative="1" as="geometry">
            <mxPoint x="1221.73" y="-160" as="sourcePoint" />
            <mxPoint x="1341.73" y="-160" as="targetPoint" />
          </mxGeometry>
        </mxCell>
        <mxCell id="WhICr9UihUXxUCOtgDrp-715" value="" style="endArrow=classic;html=1;rounded=0;fontSize=12;startSize=8;endSize=8;curved=1;exitX=1;exitY=0.5;exitDx=0;exitDy=0;" edge="1" parent="1" source="WhICr9UihUXxUCOtgDrp-680">
          <mxGeometry width="50" height="50" relative="1" as="geometry">
            <mxPoint x="1721.73" y="80" as="sourcePoint" />
            <mxPoint x="1881.73" y="51" as="targetPoint" />
          </mxGeometry>
        </mxCell>
        <mxCell id="WhICr9UihUXxUCOtgDrp-716" value="" style="endArrow=classic;html=1;rounded=0;fontSize=12;startSize=8;endSize=8;curved=1;exitX=1;exitY=0.5;exitDx=0;exitDy=0;" edge="1" parent="1" source="WhICr9UihUXxUCOtgDrp-702">
          <mxGeometry width="50" height="50" relative="1" as="geometry">
            <mxPoint x="1721.73" y="820" as="sourcePoint" />
            <mxPoint x="1881.73" y="780" as="targetPoint" />
          </mxGeometry>
        </mxCell>
        <mxCell id="WhICr9UihUXxUCOtgDrp-717" value="" style="endArrow=none;html=1;rounded=0;fontSize=12;startSize=8;endSize=8;curved=1;exitX=1;exitY=0.5;exitDx=0;exitDy=0;" edge="1" parent="1" source="WhICr9UihUXxUCOtgDrp-686">
          <mxGeometry width="50" height="50" relative="1" as="geometry">
            <mxPoint x="1721.73" y="280" as="sourcePoint" />
            <mxPoint x="1761.73" y="230" as="targetPoint" />
          </mxGeometry>
        </mxCell>
        <mxCell id="WhICr9UihUXxUCOtgDrp-718" value="" style="endArrow=none;html=1;rounded=0;fontSize=12;startSize=8;endSize=8;curved=1;" edge="1" parent="1">
          <mxGeometry width="50" height="50" relative="1" as="geometry">
            <mxPoint x="1761.73" y="720" as="sourcePoint" />
            <mxPoint x="1761.73" y="230" as="targetPoint" />
          </mxGeometry>
        </mxCell>
        <mxCell id="WhICr9UihUXxUCOtgDrp-719" value="" style="endArrow=none;html=1;rounded=0;fontSize=12;startSize=8;endSize=8;curved=1;entryX=0.5;entryY=1;entryDx=0;entryDy=0;" edge="1" parent="1" target="WhICr9UihUXxUCOtgDrp-701">
          <mxGeometry width="50" height="50" relative="1" as="geometry">
            <mxPoint x="1561.73" y="720" as="sourcePoint" />
            <mxPoint x="1601.73" y="700" as="targetPoint" />
          </mxGeometry>
        </mxCell>
        <mxCell id="WhICr9UihUXxUCOtgDrp-720" value="" style="endArrow=none;html=1;rounded=0;fontSize=12;startSize=8;endSize=8;curved=1;" edge="1" parent="1">
          <mxGeometry width="50" height="50" relative="1" as="geometry">
            <mxPoint x="1401.73" y="720" as="sourcePoint" />
            <mxPoint x="1561.73" y="720" as="targetPoint" />
          </mxGeometry>
        </mxCell>
        <mxCell id="WhICr9UihUXxUCOtgDrp-721" value="" style="endArrow=classic;html=1;rounded=0;fontSize=12;startSize=8;endSize=8;curved=1;" edge="1" parent="1">
          <mxGeometry width="50" height="50" relative="1" as="geometry">
            <mxPoint x="1761.73" y="720" as="sourcePoint" />
            <mxPoint x="1561.73" y="720" as="targetPoint" />
          </mxGeometry>
        </mxCell>
        <mxCell id="WhICr9UihUXxUCOtgDrp-722" value="" style="endArrow=none;html=1;rounded=0;fontSize=12;startSize=8;endSize=8;curved=1;" edge="1" parent="1">
          <mxGeometry width="50" height="50" relative="1" as="geometry">
            <mxPoint x="1401.73" y="720" as="sourcePoint" />
            <mxPoint x="1401.73" y="120" as="targetPoint" />
          </mxGeometry>
        </mxCell>
        <mxCell id="WhICr9UihUXxUCOtgDrp-723" value="" style="endArrow=classic;html=1;rounded=0;fontSize=12;startSize=8;endSize=8;curved=1;entryX=0;entryY=0.5;entryDx=0;entryDy=0;" edge="1" parent="1" target="WhICr9UihUXxUCOtgDrp-683">
          <mxGeometry width="50" height="50" relative="1" as="geometry">
            <mxPoint x="1401.73" y="122" as="sourcePoint" />
            <mxPoint x="1381.73" y="60" as="targetPoint" />
          </mxGeometry>
        </mxCell>
        <mxCell id="WhICr9UihUXxUCOtgDrp-724" value="" style="endArrow=none;html=1;rounded=0;fontSize=12;startSize=8;endSize=8;curved=1;exitX=1;exitY=0.5;exitDx=0;exitDy=0;" edge="1" parent="1" source="WhICr9UihUXxUCOtgDrp-683">
          <mxGeometry width="50" height="50" relative="1" as="geometry">
            <mxPoint x="1721.73" y="180" as="sourcePoint" />
            <mxPoint x="1861.73" y="122" as="targetPoint" />
          </mxGeometry>
        </mxCell>
        <mxCell id="WhICr9UihUXxUCOtgDrp-725" value="" style="endArrow=none;html=1;rounded=0;fontSize=12;startSize=8;endSize=8;curved=1;" edge="1" parent="1">
          <mxGeometry width="50" height="50" relative="1" as="geometry">
            <mxPoint x="1861.73" y="730" as="sourcePoint" />
            <mxPoint x="1861.73" y="120" as="targetPoint" />
          </mxGeometry>
        </mxCell>
        <mxCell id="WhICr9UihUXxUCOtgDrp-726" value="" style="endArrow=classic;html=1;rounded=0;fontSize=12;startSize=8;endSize=8;curved=1;entryX=0.5;entryY=0;entryDx=0;entryDy=0;" edge="1" parent="1" target="WhICr9UihUXxUCOtgDrp-702">
          <mxGeometry width="50" height="50" relative="1" as="geometry">
            <mxPoint x="1861.73" y="730" as="sourcePoint" />
            <mxPoint x="1801.73" y="720" as="targetPoint" />
          </mxGeometry>
        </mxCell>
        <mxCell id="WhICr9UihUXxUCOtgDrp-727" value="" style="endArrow=classic;html=1;rounded=0;fontSize=12;startSize=8;endSize=8;curved=1;exitX=1;exitY=0.5;exitDx=0;exitDy=0;" edge="1" parent="1" source="WhICr9UihUXxUCOtgDrp-701">
          <mxGeometry width="50" height="50" relative="1" as="geometry">
            <mxPoint x="1711.73" y="680" as="sourcePoint" />
            <mxPoint x="1861.73" y="650" as="targetPoint" />
          </mxGeometry>
        </mxCell>
        <mxCell id="WhICr9UihUXxUCOtgDrp-728" value="" style="endArrow=none;html=1;rounded=0;fontSize=12;startSize=8;endSize=8;curved=1;entryX=0.5;entryY=1;entryDx=0;entryDy=0;" edge="1" parent="1" target="WhICr9UihUXxUCOtgDrp-702">
          <mxGeometry width="50" height="50" relative="1" as="geometry">
            <mxPoint x="1321.73" y="830" as="sourcePoint" />
            <mxPoint x="1381.73" y="780" as="targetPoint" />
          </mxGeometry>
        </mxCell>
        <mxCell id="WhICr9UihUXxUCOtgDrp-729" value="" style="endArrow=none;html=1;rounded=0;fontSize=12;startSize=8;endSize=8;curved=1;" edge="1" parent="1">
          <mxGeometry width="50" height="50" relative="1" as="geometry">
            <mxPoint x="1321.73" y="830" as="sourcePoint" />
            <mxPoint x="1321.73" y="50" as="targetPoint" />
          </mxGeometry>
        </mxCell>
        <mxCell id="WhICr9UihUXxUCOtgDrp-730" value="" style="endArrow=classic;html=1;rounded=0;fontSize=12;startSize=8;endSize=8;curved=1;entryX=0;entryY=0.5;entryDx=0;entryDy=0;" edge="1" parent="1" target="WhICr9UihUXxUCOtgDrp-680">
          <mxGeometry width="50" height="50" relative="1" as="geometry">
            <mxPoint x="1321.73" y="51" as="sourcePoint" />
            <mxPoint x="1431.73" y="30" as="targetPoint" />
          </mxGeometry>
        </mxCell>
        <mxCell id="WhICr9UihUXxUCOtgDrp-731" value="" style="endArrow=none;html=1;rounded=0;fontSize=12;startSize=8;endSize=8;curved=1;" edge="1" parent="1">
          <mxGeometry width="50" height="50" relative="1" as="geometry">
            <mxPoint x="1561.73" y="880" as="sourcePoint" />
            <mxPoint x="1921.73" y="880" as="targetPoint" />
          </mxGeometry>
        </mxCell>
        <mxCell id="WhICr9UihUXxUCOtgDrp-732" value="matrix[i][j] == 0" style="text;html=1;align=center;verticalAlign=middle;whiteSpace=wrap;rounded=0;fontSize=16;" vertex="1" parent="1">
          <mxGeometry x="1501.73" y="-80" width="110" height="60" as="geometry" />
        </mxCell>
        <mxCell id="WhICr9UihUXxUCOtgDrp-733" value="matrix[k][l] == 1" style="text;html=1;align=center;verticalAlign=middle;whiteSpace=wrap;rounded=0;fontSize=16;" vertex="1" parent="1">
          <mxGeometry x="1501.73" y="200" width="120" height="60" as="geometry" />
        </mxCell>
        <mxCell id="WhICr9UihUXxUCOtgDrp-734" value="ones_needed == 0" style="text;html=1;align=center;verticalAlign=middle;whiteSpace=wrap;rounded=0;fontSize=16;" vertex="1" parent="1">
          <mxGeometry x="1511.73" y="620" width="100" height="60" as="geometry" />
        </mxCell>
        <mxCell id="WhICr9UihUXxUCOtgDrp-735" value="ones_needed == 0" style="text;html=1;align=center;verticalAlign=middle;whiteSpace=wrap;rounded=0;fontSize=16;" vertex="1" parent="1">
          <mxGeometry x="1514.23" y="750" width="100" height="60" as="geometry" />
        </mxCell>
        <mxCell id="WhICr9UihUXxUCOtgDrp-736" value="" style="rounded=1;whiteSpace=wrap;html=1;" vertex="1" parent="1">
          <mxGeometry x="1501.73" y="920" width="120" height="40" as="geometry" />
        </mxCell>
        <mxCell id="WhICr9UihUXxUCOtgDrp-737" value="" style="endArrow=classic;html=1;rounded=0;fontSize=12;startSize=8;endSize=8;curved=1;exitX=0.5;exitY=1;exitDx=0;exitDy=0;entryX=0.5;entryY=0;entryDx=0;entryDy=0;" edge="1" parent="1" target="WhICr9UihUXxUCOtgDrp-736">
          <mxGeometry width="50" height="50" relative="1" as="geometry">
            <mxPoint x="1561.73" y="880" as="sourcePoint" />
            <mxPoint x="1771.73" y="880" as="targetPoint" />
          </mxGeometry>
        </mxCell>
        <mxCell id="WhICr9UihUXxUCOtgDrp-738" value="Конец" style="text;html=1;align=center;verticalAlign=middle;whiteSpace=wrap;rounded=0;fontSize=16;" vertex="1" parent="1">
          <mxGeometry x="1501.73" y="920" width="120" height="40" as="geometry" />
        </mxCell>
      </root>
    </mxGraphModel>
  </diagram>
</mxfile>
